<svg xmlns="http://www.w3.org/2000/svg" width="30.25" height="22" fill="none"><path fill="#12D2AC" fill-rule="evenodd" d="M2.73 13.27a3.726 3.726 0 0 1 0-5.205l5.207-5.332a3.726 3.726 0 0 1 5.33 5.206L8.06 13.27a3.726 3.726 0 0 1-5.33 0" clip-rule="evenodd"/><path fill="#307AF2" fill-rule="evenodd" d="M7.94 2.732a3.725 3.725 0 0 1 5.332 0l5.207 5.333a3.725 3.725 0 1 1-5.33 5.205L7.94 7.938a3.726 3.726 0 0 1 0-5.206" clip-rule="evenodd"/><path fill="#0057FE" fill-rule="evenodd" d="M7.738 2.93a4 4 0 0 1 5.724 0l2.345 2.402-5.207 5.333-5.207-5.333z" clip-rule="evenodd"/></svg>