<svg xmlns="http://www.w3.org/2000/svg" width="200px" height="200px" viewBox="0 0 200 200"><defs><linearGradient id="a" x1="55.2905824%" x2="5.8956238%" y1="30.2400227%" y2="78.3822166%"><stop offset="0%" stop-color="#29CDFF"/><stop offset="36.2446377%" stop-color="#148EFF"/><stop offset="100%" stop-color="#0A60FF"/></linearGradient><linearGradient id="b" x1="87.3789235%" x2="25.8257448%" y1="27.8488943%" y2="80.2051011%"><stop offset="0%" stop-color="#FA816E"/><stop offset="48.0123264%" stop-color="#F74A5C"/><stop offset="100%" stop-color="#F51D2C"/><stop offset="100%" stop-color="#F51D2C"/><stop offset="100%" stop-color="#F51D2C"/></linearGradient><linearGradient id="c" x1="50%" x2="50%" y1="-22.9977195%" y2="100%"><stop offset="0%" stop-color="#FA8E7D"/><stop offset="49.6339425%" stop-color="#F74A5C"/><stop offset="100%" stop-color="#F51D2C"/></linearGradient><linearGradient id="d" x1="50%" x2="32.8245806%" y1="0%" y2="116.815793%"><stop offset="0%" stop-color="#4285EB"/><stop offset="100%" stop-color="#2EC7FF"/></linearGradient></defs><g fill="none" fill-rule="evenodd"><path d="M0 0h200v200H0z"/><path d="M20 20h160v160H20z"/><path fill="url(#a)" d="M47.549 2.321c7.781-4.478 17.72-1.8 22.197 5.982l40.265 69.972a9.11 9.11 0 0 1-3.338 12.43 8.996 8.996 0 0 1-12.29-3.29L58.149 24.697a3.048 3.048 0 0 0-5.279.002L16.587 87.57a8.856 8.856 0 0 1-12.164 3.202 9.03 9.03 0 0 1-3.242-12.28l40.386-70.19a16.26 16.26 0 0 1 5.982-5.982" transform="translate(24 54)"/><path fill="url(#b)" d="m108.144 4.517.01.017 27.538 47.502a9.144 9.144 0 0 1-3.301 12.483 9.09 9.09 0 0 1-12.445-3.291L92.405 13.71a9.134 9.134 0 0 1 3.304-12.472 9.093 9.093 0 0 1 12.435 3.28" transform="translate(24 54)"/><path fill="url(#c)" d="M142.907 91.723c5.022 0 9.093-4.063 9.093-9.076s-4.07-9.076-9.093-9.076c-5.021 0-9.092 4.063-9.092 9.076s4.07 9.076 9.092 9.076" transform="translate(24 54)"/><path fill="url(#d)" d="M65.567 14.707q7.56 0 11.307 5.874l33.137 57.681a9.105 9.105 0 0 1-3.353 12.427 9.01 9.01 0 0 1-12.307-3.316L63.435 33.645l-5.3-8.96a3.048 3.048 0 0 0-5.283.062l-.04.07q5.193-10.11 12.755-10.11" transform="translate(24 54)"/></g></svg>