<svg xmlns="http://www.w3.org/2000/svg" width="128px" height="128px" viewBox="0 0 128 128"><defs><linearGradient id="a" x1="69.644116%" x2="69.644116%" y1="0%" y2="100%"><stop offset="0%" stop-color="#29CDFF"/><stop offset="37.8600687%" stop-color="#148EFF"/><stop offset="100%" stop-color="#0A60FF"/></linearGradient><linearGradient id="b" x1="-19.8191553%" x2="138.57919%" y1="-36.7931464%" y2="157.637507%"><stop offset="0%" stop-color="#29CDFF"/><stop offset="100%" stop-color="#0F78FF"/></linearGradient><linearGradient id="c" x1="68.1279872%" x2="30.4400914%" y1="-35.6905737%" y2="114.942679%"><stop offset="0%" stop-color="#FA8E7D"/><stop offset="51.2635191%" stop-color="#F74A5C"/><stop offset="100%" stop-color="#F51D2C"/></linearGradient></defs><g fill="none" fill-rule="evenodd"><path fill="url(#a)" fill-rule="nonzero" d="M89.96 90.48c-11.38 3-21.63-7.12-22.34-8L46.66 62.23a6 6 0 0 1-1.83-4.267l-.326-40.442a4 4 0 0 0-1.224-2.848L29.646 1.532a4 4 0 0 0-6.776 2.88v59.974a10 10 0 0 0 3.015 7.157l37.715 36.81a6 6 0 0 0 8.421-.04" transform="matrix(-1 0 0 1 131.83 9)"/><path fill="url(#b)" fill-rule="nonzero" d="M68 90.116c-11.38 3-22.54-6.756-23.25-7.636L23.79 62.23a6 6 0 0 1-1.83-4.267l-.326-40.442a4 4 0 0 0-1.224-2.848L6.776 1.532A4 4 0 0 0 0 4.412v59.974a10 10 0 0 0 3.015 7.157l37.766 36.858a6 6 0 0 0 8.37.012" transform="translate(19 9)"/><path fill="url(#c)" d="M43.298 19.1 27.557 3.881a2 2 0 0 1 1.39-3.438h31.446a2 2 0 0 1 1.391 3.437L46.08 19.098a2 2 0 0 1-2.782.001" transform="translate(19 9)"/></g></svg>