<svg xmlns="http://www.w3.org/2000/svg" width="188" height="28" fill="none" viewBox="0 0 188 28"><path fill="#5A29E4" d="m93.295 3.652-6.939 5.653h4.532V27.68l2.407-1.939zm2 20.448 7.061-5.795h-4.658V.35l-2.403 1.673zm87.4-17.147q1.2.624 1.728 1.056l2.496-4.752q-1.872-1.152-4.512-2.064-2.592-.912-5.616-.912-2.88 0-5.328.96-2.4.96-3.84 2.832-1.392 1.872-1.392 4.656 0 3.12 1.968 4.8 2.016 1.632 6.144 2.688 3.312.864 5.328 1.584 2.064.672 2.064 2.256 0 2.352-4.416 2.352-2.208 0-4.176-.528t-3.456-1.296q-1.44-.768-2.064-1.392l-2.592 5.04q2.496 1.584 5.712 2.496t6.48.912q2.832 0 5.28-.768 2.448-.816 3.936-2.592 1.536-1.824 1.536-4.8 0-2.448-1.152-3.936-1.104-1.536-3.216-2.448-2.064-.912-4.896-1.632-3.216-.768-4.896-1.392-1.632-.624-1.632-2.112 0-2.544 4.512-2.544 1.68 0 3.264.48 1.584.432 2.736 1.056"/><path fill="#5A29E4" fill-rule="evenodd" d="M132.182 27.497q-3.168 0-5.76-1.104-2.593-1.152-4.465-3.072a14.2 14.2 0 0 1-2.88-4.416 13.1 13.1 0 0 1-1.008-5.04q0-2.64 1.056-5.088a13.4 13.4 0 0 1 2.977-4.32 14.2 14.2 0 0 1 4.511-3.024q2.592-1.104 5.664-1.104 3.168 0 5.761 1.2 2.592 1.152 4.416 3.12a13.7 13.7 0 0 1 2.879 4.368 13 13 0 0 1 1.009 4.992q0 2.64-1.056 5.088a14.1 14.1 0 0 1-2.977 4.32q-1.871 1.872-4.463 2.976t-5.664 1.104m-8.257-13.584q0 2.16 1.009 4.128a8.3 8.3 0 0 0 2.831 3.12q1.872 1.2 4.464 1.2 2.64 0 4.464-1.248 1.825-1.296 2.784-3.216.96-1.968.961-4.032 0-2.16-1.008-4.08a7.8 7.8 0 0 0-2.881-3.072q-1.823-1.2-4.367-1.2-2.64 0-4.513 1.248a8.3 8.3 0 0 0-2.784 3.168 8.8 8.8 0 0 0-.96 3.984M0 27.305 11.712.473h4.752l11.664 26.832h-6.144l-2.688-6.288H8.88l-2.688 6.288zM14.112 7.529l-3.936 8.448h7.728z" clip-rule="evenodd"/><path fill="#5A29E4" d="m50.821.473 7.392 9.504L65.605.473h6.288L61.285 14.057l10.272 13.248H65.27l-7.056-9.12-7.008 9.12h-6.384l10.32-13.248L44.485.473z"/></svg>