<svg xmlns="http://www.w3.org/2000/svg" width="200" height="200" class="icon" viewBox="0 0 1024 1024"><path d="M70.717 526.403a446.403 446.403 0 1 0 892.806 0 446.403 446.403 0 1 0-892.806 0"/><path fill="#D95E5E" d="M70.717 497.603a446.403 446.403 0 1 0 892.806 0 446.403 446.403 0 1 0-892.806 0"/><path fill="#F4F0E6" d="M185.917 497.603a331.203 331.203 0 1 0 662.406 0 331.203 331.203 0 1 0-662.406 0"/><path fill="#E4DED0" d="M517.12 137.6c-198.825 0-360.003 161.172-360.003 360.003 0 198.814 161.178 360.002 360.003 360.002 198.815 0 360.003-161.183 360.003-360.002 0-198.83-161.188-360.003-360.003-360.003m0 676.803c-174.966 0-316.8-141.835-316.8-316.8s141.834-316.8 316.8-316.8 316.8 141.834 316.8 316.8-141.834 316.8-316.8 316.8"/><path fill="#DCD8CD" d="M517.12 180.803a14.397 14.397 0 0 0-14.403 14.402v43.203a14.408 14.408 0 0 0 28.806 0v-43.203a14.387 14.387 0 0 0-14.403-14.402m0 561.597a14.397 14.397 0 0 0-14.403 14.403v43.202a14.408 14.408 0 0 0 28.806 0v-43.202A14.39 14.39 0 0 0 517.12 742.4m302.403-259.2H776.32a14.403 14.403 0 0 0 0 28.805h43.203a14.403 14.403 0 0 0 0-28.805m-561.603 0h-43.203a14.397 14.397 0 1 0 0 28.805h43.203a14.397 14.397 0 1 0 0-28.805"/><path d="M718.72 526.403H531.517v28.8H718.72a14.403 14.403 0 0 0 0-28.8"/><path fill="#D95E5E" d="M704.323 468.803h-172.8a28.805 28.805 0 0 0 0 57.6h172.8a28.805 28.805 0 0 0 0-57.6"/><path fill="#D95E5E" d="M520.238 467.2 367.514 314.465a28.8 28.8 0 1 0-40.73 40.74l152.74 152.735a28.8 28.8 0 0 0 40.714-40.74"/><path d="M445.123 519.199a64.799 64.799 0 1 0 129.597 0 64.799 64.799 0 1 0-129.597 0"/><path fill="#FFF" d="M445.123 490.399a64.799 64.799 0 1 0 129.597 0 64.799 64.799 0 1 0-129.597 0"/></svg>