<svg xmlns="http://www.w3.org/2000/svg" width="100" height="100" viewBox="0 0 1024 1024"><path fill="#FFAB00" d="M294.853 88.151V566.76H422.14v391.59l297.006-522.12H549.43L719.147 88.151z"/><path fill="#6988e6" d="M14.718 672.593c34.362 100.929 285.217 119.16 560.012 41.043s469.67-223.78 435.23-324.726c-22.343-65.626-135.615-96.273-288.298-88.103a7945 7945 0 0 0 108.063 46.483 267.232 283.477-77.351 0 1 48.191 23.453l.946.212c43.171 9.689 66.169 24.835 69.786 35.631 12.677 37.168-105.993 166.626-393.93 248.735-154.255 43.934-310.826 57.627-408.985 35.598-43.172-9.69-66.17-24.835-69.804-35.557-6.599-19.267 22.001-63.006 90.57-112.285.869-1.287 1.675-2.666 2.56-4.028 25.981-38.71 50.262-76.477 72.512-112.202C84.18 503.93-10.148 599.77 14.718 672.593"/></svg>