<svg xmlns="http://www.w3.org/2000/svg" width="128" height="128" fill="none" viewBox="0 0 128 128"><g clip-path="url(#a)"><path fill="url(#b)" d="M63.92 127.84c35.302 0 63.92-28.618 63.92-63.92S99.222 0 63.92 0 0 28.618 0 63.92s28.618 63.92 63.92 63.92"/><path fill="#A2ECFB" d="M51.395 39.503a1.8 1.8 0 0 0 .646-3.542zM28.94 60.936a1.8 1.8 0 0 0 3.125-1.789zm8.755 5.81a1.8 1.8 0 0 0-2.665 2.42zM96.92 89.515a1.8 1.8 0 1 0-2.03-2.973zM52.04 35.961c-5.57-1.016-10.756-1.064-15.067-.023-4.32 1.043-7.89 3.22-9.918 6.738l3.119 1.798c1.394-2.42 3.97-4.15 7.644-5.037 3.682-.89 8.336-.89 13.576.066zm-24.985 6.715c-3.013 5.227-1.778 11.864 1.883 18.26l3.125-1.789c-3.406-5.95-3.955-11.089-1.89-14.673zm7.973 26.49c4.61 5.074 10.687 9.97 17.819 14.094l1.802-3.117c-6.842-3.956-12.62-8.624-16.956-13.397zm17.82 14.094c8.496 4.913 17.198 7.984 24.887 9.1 7.624 1.108 14.54.328 19.186-2.845l-2.03-2.973c-3.565 2.435-9.4 3.307-16.639 2.256-7.173-1.041-15.443-3.937-23.602-8.655zm52.511 1.648a6.29 6.29 0 0 0-6.288-6.295v3.6a2.69 2.69 0 0 1 2.688 2.695zm-6.288-6.295a6.29 6.29 0 0 0-6.288 6.295h3.6a2.69 2.69 0 0 1 2.688-2.695zm-6.288 6.295a6.29 6.29 0 0 0 6.288 6.295v-3.6a2.69 2.69 0 0 1-2.688-2.695zm6.288 6.295a6.29 6.29 0 0 0 6.288-6.295h-3.6a2.69 2.69 0 0 1-2.688 2.695z"/><path fill="#A2ECFB" d="M91.487 65.382a1.8 1.8 0 1 0 2.75 2.324zm-6.98-30.14a1.8 1.8 0 1 0-.047 3.599zm-9.566 4.638a1.8 1.8 0 0 0-.756-3.52zM25.549 80.905a1.8 1.8 0 0 0 3.562-.522zm68.688-13.2c3.647-4.314 6.268-8.778 7.515-13.027 1.249-4.257 1.148-8.43-.876-11.941l-3.119 1.797c1.392 2.415 1.603 5.508.54 9.13-1.065 3.63-3.379 7.658-6.81 11.718zm6.639-24.968c-2.964-5.143-9.168-7.402-16.369-7.496l-.047 3.6c6.673.087 11.266 2.17 13.297 5.693zm-26.69-6.377c-6.75 1.449-14.098 4.288-21.303 8.455l1.802 3.116c6.912-3.997 13.91-6.69 20.256-8.05zm-21.303 8.455c-8.746 5.057-15.916 11.28-20.734 17.578-4.772 6.237-7.434 12.819-6.6 18.512l3.562-.522c-.627-4.28 1.364-9.877 5.897-15.803 4.488-5.866 11.276-11.791 19.677-16.649z"/><path fill="#A2ECFB" d="M49.083 87.23a1.8 1.8 0 1 0-3.39 1.212zm29.48 9.196a1.8 1.8 0 0 0-3.086-1.853zM79.57 85.18a1.8 1.8 0 1 0 3.436 1.073zM69.156 22.53a1.8 1.8 0 1 0-1.463 3.29zM45.693 88.442c1.906 5.332 4.457 9.849 7.51 13.063 3.06 3.219 6.725 5.226 10.78 5.226v-3.6c-2.785 0-5.566-1.366-8.17-4.106-2.609-2.746-4.936-6.777-6.73-11.796zm18.29 18.289c5.886 0 10.91-4.189 14.58-10.305l-3.086-1.853c-3.399 5.662-7.465 8.558-11.494 8.558zm19.023-20.478c2.02-6.467 3.177-14.07 3.177-22.186h-3.6c0 7.787-1.11 15.025-3.013 21.113zm3.177-22.186c0-9.953-1.74-19.145-4.687-26.417-2.921-7.206-7.152-12.813-12.34-15.12l-1.463 3.29c3.943 1.753 7.692 6.336 10.467 13.183 2.749 6.78 4.423 15.504 4.423 25.064z"/><path stroke="#A2ECFB" stroke-linecap="round" stroke-width="3.6" d="M103.559 84.908a4.49 4.49 0 0 0-4.488-4.495 4.49 4.49 0 0 0-4.488 4.495 4.49 4.49 0 0 0 4.488 4.495 4.49 4.49 0 0 0 4.488-4.495Zm-74.745 4.495a4.49 4.49 0 0 0 4.488-4.495 4.49 4.49 0 0 0-4.488-4.495 4.49 4.49 0 0 0-4.488 4.495 4.49 4.49 0 0 0 4.488 4.495Z" clip-rule="evenodd"/><path stroke="#A2ECFB" stroke-linecap="round" stroke-width="3.6" d="M63.984 27.699a4.49 4.49 0 0 0 4.487-4.495 4.49 4.49 0 0 0-4.488-4.495 4.49 4.49 0 0 0-4.487 4.495 4.49 4.49 0 0 0 4.487 4.495Z"/><path fill="url(#c)" d="m70.718 48.01-14.405 2.666a.51.51 0 0 0-.426.46l-.886 14.138c-.02.333.303.592.647.517l4.01-.875c.375-.081.714.23.637.587l-1.191 5.512c-.08.371.288.688.672.578l2.477-.71c.384-.11.753.207.672.579l-1.894 8.657c-.118.542.644.837.962.373l.212-.31 11.738-22.129c.196-.37-.143-.793-.573-.714l-4.128.752c-.388.07-.718-.27-.609-.629l2.694-8.824c.11-.359-.221-.7-.61-.628"/></g><defs><linearGradient id="b" x1="1.43824" x2="56.3296" y1="7.91009" y2="82.4569" gradientUnits="userSpaceOnUse"><stop stop-color="#41D1FF"/><stop offset="1" stop-color="#BD34FE"/></linearGradient><linearGradient id="c" x1="60.3173" x2="64.237" y1="48.7336" y2="77.1962" gradientUnits="userSpaceOnUse"><stop stop-color="#FFEA83"/><stop offset="0.0833333" stop-color="#FFDD35"/><stop offset="1" stop-color="#FFA800"/></linearGradient><clipPath id="a"><path fill="#fff" d="M0 0h128v128H0z"/></clipPath></defs></svg>