<svg xmlns="http://www.w3.org/2000/svg" width="350" height="130"><path fill="none" d="M-1-1h352v132H-1z"/><g fill="none" fill-rule="evenodd" stroke="null"><path d="M28 41h589v67H28z"/><path fill="#454ce1" d="M324.962 88.965q3.158-1.522 4.902-4.361 1.747-2.84 1.746-6.585 0-8.84-10.137-11.883l-5.65-1.756q-3.269-.996-4.792-2.488-1.524-1.493-1.523-3.659-.001-2.692 2.188-4.478t5.511-1.785q2.991 0 5.346 1.58a9.6 9.6 0 0 1 3.264 3.683q.072.142.274.523l.477-.31 4.016-2.575q.108-.069.396-.282a10 10 0 0 0-.187-.452q-1.676-3.59-5.11-5.68-3.656-2.223-8.476-2.224-4.043.001-7.229 1.552t-4.985 4.419-1.8 6.556q0 8.664 9.915 11.766l6.093 1.873q3.103.995 4.599 2.488 1.495 1.494 1.495 3.658.001 2.752-2.188 4.478-2.189 1.727-5.623 1.727-4.065 0-7.535-2.573a7.25 7.25 0 0 1-2.219-2.659 70 70 0 0 0-.457-.917q-.586.321-.848.473l-3.898 2.259q-.106.061-.426.268.125.318.195.473 1.756 3.81 5.744 6.042 4.237 2.37 9.666 2.37 4.099 0 7.256-1.521m-71.294-30.064-1.112.01-5.44-.002-.168-.002-.189.506-7.631 22.064-7.616-22.021a11 11 0 0 1-.111-.36l-.053-.18-.527-.006-6.592.002.364.918q.055.14.082.214l11.141 30.086-5.413 13.204q-.086.212-.338.783l-.161.365 1.22.012h5.493l16.837-45.013zm-42.647-.811q-3.22 0-5.743 1.497l-.208.127a9.7 9.7 0 0 0-3.158 3.169l-.087.143-.4-4.116h-5.329v31.134h6.418v-17.82c0-2.356.643-4.243 1.927-5.676 1.282-1.43 2.935-2.143 4.974-2.143 1.89 0 3.382.654 4.498 1.963 1.12 1.315 1.681 3.087 1.681 5.329v18.347h6.363V70.41q.001-3.632-1.384-6.442-1.39-2.817-3.86-4.348-2.47-1.529-5.692-1.528m-33.193 6.138c-2.44 0-4.392.932-5.877 2.804-1.493 1.882-2.242 4.369-2.242 7.472 0 3.065.748 5.532 2.242 7.414 1.485 1.872 3.437 2.805 5.877 2.805 2.402 0 4.336-.933 5.822-2.805 1.493-1.882 2.241-4.349 2.241-7.414 0-3.103-.748-5.59-2.24-7.472-1.487-1.872-3.42-2.805-5.823-2.805m0-6.138q4.276 0 7.575 2.055 3.301 2.059 5.162 5.81 1.856 3.748 1.856 8.55 0 4.806-1.857 8.522-1.86 3.722-5.16 5.78-3.3 2.055-7.576 2.055t-7.602-2.054q-3.33-2.059-5.19-5.781-1.856-3.717-1.856-8.522 0-4.86 1.856-8.58c1.24-2.48 2.971-4.41 5.19-5.78q3.328-2.055 7.602-2.055m-27.893.003q2.957.061 5.244 1.558 2.385 1.56 3.692 4.38 1.244 2.685 1.297 6.068l.002.309v19.635h-6.363V71.111c0-2.047-.507-3.674-1.517-4.892-1.005-1.21-2.369-1.814-4.109-1.814-1.892 0-3.414.655-4.585 1.967-1.131 1.268-1.718 2.923-1.759 4.978l-.002.23v18.464h-6.363V71.111c0-2.047-.516-3.673-1.544-4.89-1.024-1.21-2.398-1.816-4.137-1.816-1.854 0-3.359.655-4.53 1.967-1.131 1.268-1.718 2.923-1.759 4.978l-.002.23v18.464h-6.418V58.91h5.4l.338 4.029.076-.129a9.6 9.6 0 0 1 2.99-3.087l.207-.133q2.413-1.5 5.36-1.5 3.004 0 5.365 1.562 2.15 1.426 3.472 3.845l.021.041a9.8 9.8 0 0 1 3.472-3.764l.205-.127q2.47-1.491 5.43-1.553l.26-.003zm-39.023.348q-3.053 0-5.327 1.35l-.196.12a8.7 8.7 0 0 0-2.832 2.88l-.054.092-.329-3.974H96.32v31.134h6.418v-17.82c0-2.273.676-4.067 2.027-5.4 1.355-1.338 3.197-2.01 5.538-2.01q1.26 0 2.19.13l.185.033q.12.024.297.063l.383.087.013-.784.002-.224.002-5.167v-.199l-.181-.052q-.314-.09-.468-.119-.78-.14-1.814-.14M84.197 76.054h-5.996c-1.833 0-3.304.452-4.421 1.352-1.104.888-1.648 2.003-1.648 3.364 0 1.364.5 2.438 1.51 3.247q1.535 1.233 4.005 1.234c2.116 0 3.778-.666 5.003-1.999 1.185-1.289 1.799-2.955 1.84-5.011l.002-.222v-1.654a.303.303 0 0 0-.295-.311m-5.331-17.963c3.637 0 6.539.985 8.691 2.961 2.111 1.937 3.191 4.648 3.24 8.113l.002.249v20.63h-5.333l-.395-3.6-.092.139a8.7 8.7 0 0 1-2.699 2.546l-.22.13-.202.113q-2.328 1.259-5.485 1.257c-3.121 0-5.67-.867-7.636-2.607-1.976-1.747-2.968-4.035-2.968-6.843 0-2.005.523-3.785 1.569-5.33q1.564-2.314 4.339-3.6 2.641-1.225 6.047-1.278l.31-.002h6.457v-.736c0-1.897-.458-3.353-1.369-4.384l-.103-.113-.111-.113c-1.06-1.044-2.514-1.57-4.375-1.57q-2.21 0-4.013.996-1.578.87-2.681 2.419l-.043.064-.097.157-.135.23-.14.24-.554-.43-.13-.103-3.307-2.657a9 9 0 0 1-.241-.204l-.298-.26.189-.362q.105-.196.173-.3 1.715-2.602 4.575-4.115 3.099-1.638 7.035-1.637M34.695 46.676H28v43.368h6.695V70.902h19.949v19.142h6.696V46.676h-6.696v17.736H34.695zm244.143 5.874c-8.277 0-14.986 7.09-14.986 15.836s6.71 15.837 14.986 15.837 14.986-7.09 14.986-15.837-6.71-15.837-14.986-15.837m0-6.75c11.804 0 21.374 10.113 21.374 22.587s-9.57 22.587-21.374 22.587c-11.805 0-21.374-10.113-21.374-22.587s9.57-22.587 21.374-22.587"/><path fill="#1F69FF" d="M264.589 104.213h28.498v-6.23H264.59z"/><path fill="#454ce1" fill-rule="nonzero" d="M429.297 72.634q0 1.384-.285 3.31h-20.786q.399 4.695 2.79 7.071 2.392 2.378 5.98 2.378 4.67 0 6.777-4.093l4.385 2.708q-1.14 3.25-4.328 5.025-3.19 1.776-7.118 1.776-4.044 0-7.347-1.896t-5.267-5.627-1.965-8.906q0-5.056 1.965-8.726t5.239-5.567a13.9 13.9 0 0 1 7.09-1.896q3.871 0 6.777 1.896 2.904 1.896 4.499 5.175t1.594 7.372zm-20.9-1.384h14.693q-.171-3.67-2.022-5.657-1.851-1.986-4.869-1.986-2.905 0-5.011 1.986t-2.79 5.657zm36.577 10.833 8.087-23.17h6.093l-12.13 31.234h-4.726l-12.529-31.234h6.606zm41.476-9.449q0 1.384-.286 3.31h-20.786q.399 4.695 2.79 7.071 2.393 2.378 5.98 2.378 4.67 0 6.777-4.093l4.385 2.708q-1.14 3.25-4.328 5.025-3.19 1.776-7.118 1.776-4.044 0-7.347-1.896t-5.267-5.627-1.965-8.906q0-5.056 1.965-8.726t5.239-5.567a13.9 13.9 0 0 1 7.09-1.896q3.872 0 6.777 1.896 2.904 1.896 4.499 5.175t1.594 7.372zm-20.9-1.384h14.692q-.171-3.67-2.022-5.657-1.851-1.986-4.869-1.986-2.904 0-5.011 1.986t-2.79 5.657zm25.187 18.897V44.35h5.865v45.797zm25.415-31.956q3.816 0 7.119 2.046t5.296 5.778 1.993 8.485-1.993 8.485-5.296 5.778-7.119 2.046q-3.873 0-7.204-2.046t-5.324-5.778q-1.995-3.731-1.994-8.485 0-4.755 1.994-8.485 1.992-3.732 5.324-5.778t7.204-2.046zm-.057 27.021q3.645 0 5.98-2.889 2.334-2.888 2.335-7.823t-2.364-7.823q-2.363-2.889-5.95-2.889-3.589 0-5.952 2.889t-2.363 7.823q0 4.935 2.363 7.823t5.951 2.889zM563.948 74.5q0 5.055-1.822 8.756t-4.812 5.627-6.407 1.926q-2.847 0-5.325-1.294-2.476-1.294-4.128-3.942v19.077h-5.866V58.913h5.182q.114 3.13.342 5.116 1.594-2.889 4.186-4.363a11.15 11.15 0 0 1 5.609-1.475q3.417 0 6.407 1.956t4.812 5.657 1.822 8.696zm-6.093 0q0-4.995-2.193-7.853-2.192-2.859-5.78-2.859-3.474 0-5.951 2.648t-2.477 8.064q0 5.476 2.477 8.064t5.951 2.588q3.645 0 5.809-2.799 2.163-2.798 2.164-7.853zm36.577-1.866q0 1.384-.285 3.31h-20.786q.399 4.695 2.79 7.071 2.392 2.378 5.98 2.378 4.67 0 6.777-4.093l4.385 2.708q-1.14 3.25-4.328 5.025t-7.119 1.776q-4.043 0-7.346-1.896t-5.268-5.627-1.964-8.906q0-5.056 1.964-8.726 1.965-3.671 5.24-5.567a13.9 13.9 0 0 1 7.09-1.896q3.871 0 6.777 1.896 2.904 1.896 4.498 5.175t1.595 7.372zm-20.9-1.384h14.693q-.171-3.67-2.022-5.657-1.85-1.986-4.87-1.986-2.903 0-5.01 1.986t-2.791 5.657zM617 60.177l-2.221 4.875q-1.31-1.264-3.303-1.264-3.018 0-4.955 2.828-1.935 2.829-1.936 8.065v15.466h-5.865V58.913h5.182q.114 2.829.342 5.056 2.505-5.778 7.688-5.778 1.595 0 2.96.542 1.368.541 2.108 1.444z"/><path fill="#454ce1" d="M377.649 45.927c11.557 0 20.926 9.902 20.926 22.115s-9.369 22.114-20.926 22.114h-1.771v-7.372h1.77c7.706 0 13.952-6.6 13.952-14.742s-6.246-14.743-13.951-14.743h-1.771v-7.372z"/><path fill="#1F69FF" fill-rule="nonzero" d="M372.076 45.928v7.371q-.128 0-.25.002l-.243.007-.118.005-.23.013a9 9 0 0 0-.328.029l-.209.025-.102.014-.196.033c-1.864.338-2.623 1.385-2.673 3.578l-.003.24v3.797q0 4.793-2.782 7 2.74 4.19 2.78 6.816l.002.183v3.914c.025 2.236.75 3.318 2.573 3.682l.103.02.196.032.102.015.209.025.162.016.167.013.23.013.117.005.242.006.251.002v7.372l-.202-.001c-6.58-.077-11.035-3.917-11.124-11.098l-.001-.219v-3.797l-.002-.113a2.87 2.87 0 0 0-.769-1.868c-.748-.787-2.073-1.306-4.19-1.332h-.164v-7.372c2.213 0 3.587-.525 4.354-1.333.484-.51.743-1.184.769-1.867l.002-.114v-3.797c0-7.322 4.48-11.238 11.125-11.316z"/></g></svg>