<svg xmlns="http://www.w3.org/2000/svg" width="450" height="80" fill="none" viewBox="0 0 450 80"><path fill="#292C35" d="m131.49 8.57-10.65 4.97-.05 57.11h10.7zm20.58 49.53a11.65 11.65 0 0 1-3.77-8.84 11.05 11.05 0 0 1 .919-4.754 11.05 11.05 0 0 1 2.861-3.906 13 13 0 0 1 8.85-3.32 11.07 11.07 0 0 1 9.1 4.09l8.26-6.22a20.5 20.5 0 0 0-7.34-5.72 24.34 24.34 0 0 0-26.24 4 20.55 20.55 0 0 0-6.72 15.86 21 21 0 0 0 6.72 16 23.06 23.06 0 0 0 16.22 6.29c3.477.018 6.915-.73 10.07-2.19a20.14 20.14 0 0 0 7.39-5.8l-8.35-6.14a11 11 0 0 1-9.11 4.19 12.6 12.6 0 0 1-8.86-3.54m50.19-30.85a22.06 22.06 0 0 0-15.72 6.09c-4.25 4-6.4 9.4-6.4 15.92s2.16 11.92 6.41 16a23 23 0 0 0 31.4 0c4.25-4.1 6.4-9.49 6.4-16s-2.15-11.88-6.4-15.92a22.06 22.06 0 0 0-15.69-6.09m8.4 30.75a12.25 12.25 0 0 1-16.81 0 11.78 11.78 0 0 1-3.39-8.74 11.36 11.36 0 0 1 3.39-8.5 12.38 12.38 0 0 1 16.81 0 11.36 11.36 0 0 1 3.39 8.5 11.78 11.78 0 0 1-3.39 8.78zm44.65-30.75c-6.06-.3-11.46 2.37-13.65 5.17l-.83 1.06v-5.15l-10.41 4.84v37.46h10.41V47.77c0-6.71 3.53-10.4 9.94-10.4 8.1 0 8.73 7.75 8.73 10.13v23.13h10.4V42.52c0-7.03-3.83-14.74-14.59-15.27m61.54-12.84c-3.28-3.87-8.19-5.83-14.6-5.83h-25.13v62.07h10.78v-22.4h14.35c6.41 0 11.33-1.93 14.6-5.73a20.85 20.85 0 0 0 5-14 21.2 21.2 0 0 0-5-14.11M308.6 35.6a8.31 8.31 0 0 1-6.9 3.15h-13.8V18.09h14.17a7.78 7.78 0 0 1 6.68 3.25 12.12 12.12 0 0 1 2.28 7.17 11.2 11.2 0 0 1-2.43 7.09m42.36-6.85a19.7 19.7 0 0 0-7.3-1.5 21.36 21.36 0 0 0-15.24 6.14c-4.25 4.07-6.4 9.44-6.4 16s2.17 11.89 6.45 16a21.38 21.38 0 0 0 15.19 6.14c2.547-.045 5.06-.6 7.39-1.63a12.17 12.17 0 0 0 5.69-4.56l.85-1.34v6.7H368V28.31l-10.41 4.82v1.52l-.85-1.29a12.07 12.07 0 0 0-5.78-4.61m2.95 29.45a12.9 12.9 0 0 1-17.39-.1 12.115 12.115 0 0 1-2.757-13.498 12.1 12.1 0 0 1 2.757-3.992 12.5 12.5 0 0 1 8.72-3.42 12.68 12.68 0 0 1 8.62 3.27 12.465 12.465 0 0 1 2.78 13.669 12.5 12.5 0 0 1-2.73 4.071m31.36-26.16-.79.81v-4.61l-10.4 4.85v37.54h10.4V51.21c0-8.54 3.9-13.49 11.28-14.3a20.6 20.6 0 0 1 7.9 1l.22-9.26a17 17 0 0 0-6.7-1.39 16.33 16.33 0 0 0-11.91 4.78m43.23 15.11 17.47-18.27H432.8l-12.45 13.5V8.57l-10.14 4.73v57.35h10.14V51.62l16.75 19.03h12.75z"/><path fill="#067C5A" d="m0 79.26 25.45-11.87V0L0 11.86z"/><path fill="#08DFAD" d="m33.57 79.26 25.45-11.87V0L33.57 11.86zm33.57-29.7 25.45-11.87V0L67.14 11.86z"/></svg>