<svg xmlns="http://www.w3.org/2000/svg" width="100" height="33.59375" viewBox="0 0 512 172"><path fill="#FFF" d="M98.192 46.017 98.021 0h-25.66l.171 46.017 12.83 17.619zm-25.66 78.861v46.188h25.66v-46.188l-12.83-17.62z"/><path fill="#00F2E6" d="m98.192 124.878 27.028 37.292 20.699-15.053-27.028-37.293-20.699-6.671zm-25.66-78.861-27.2-37.293-20.699 15.054L51.662 61.07l20.87 6.672z"/><path fill="#00B9F1" d="M51.662 61.07 7.869 46.872 0 71.163l43.793 14.37 20.699-6.843zm54.399 31.134 12.83 17.62 43.793 14.199 7.869-24.292-43.793-14.198z"/><path fill="#D63AFF" d="m126.76 85.533 43.793-14.37-7.869-24.291-43.793 14.198-12.83 17.62zm-82.967 0L0 99.731l7.869 24.292 43.793-14.199 12.83-17.62z"/><path fill="#FB015B" d="m51.662 109.824-27.029 37.293 20.699 15.053 27.2-37.292v-21.725zm67.229-48.754 27.028-37.292L125.22 8.724 98.192 46.017v21.725z"/><path d="M266.35 43.622v59.873c0 13.172-10.778 23.949-23.95 23.949v-11.975c6.672 0 11.975-5.303 11.975-11.974V43.622zm218.622 11.974H512V43.622h-65.86v11.974h26.857v71.848h11.975zm-74.927-11.974v59.873c0 6.671-5.303 11.974-11.975 11.974s-11.974-5.303-11.974-11.974V67.57c0-13.172-10.778-23.95-23.95-23.95s-23.949 10.778-23.949 23.95v35.924c0 6.671-5.303 11.974-11.974 11.974s-11.975-5.303-11.975-11.974V43.622h-11.975v59.873c0 13.172 10.777 23.949 23.95 23.949s23.949-10.777 23.949-23.95V67.572c0-6.672 5.303-11.975 11.974-11.975s11.975 5.303 11.975 11.975v35.924c0 13.172 10.777 23.949 23.95 23.949 13.171 0 23.948-10.777 23.948-23.95V43.623z"/></svg>