<svg xmlns="http://www.w3.org/2000/svg" xml:space="preserve" width="100" height="100" x="0px" y="0px" style="width:308px;height:308px" viewBox="0 0 1000 1000"><script/><script type="text/javascript"/><path fill="#396" d="M167.262 323.83c-10.277 2.785-11.231 14-11.231 14 0 5.724.954 10.124 9.461 14.709 8.57 4.6 20.216-4.585 20.216-13.062 0-8.446-8.262-18.492-18.446-15.646m785.2 102.124c-15.6-8.785-66.616-17.985-113.462-5.523-.03.03-.092.03-.154.03-.03 0-.092.031-.154.031C792 432.8 763.6 406.877 763.6 406.877c-142.062-150.938-260.83-207.262-338.692-227.37-4.323-1.092-8.477-2.107-12.523-2.969-24.247-5.646-49.462-8.83-75.385-8.83-91.815 0-174.908 37.2-235 97.369-6.785-5.862-15.8-9.015-25.754-6.339-21.184 5.877-23.169 28.847-23.169 28.847 0 9.2 1.292 16.677 10.215 23.953-17.215 25.062-31.076 52.4-40.984 81.724-1.446 6-4.754 26.738 17.03 31.107 32.416 6.462 49.047 9.908 53.093 22.339 3.523 10.861.385 27.277-19.292 29-10.847.954-44.17-10.585-56.154-37.985-4.031-4.03-6.046-.384-6.585.954-3.692 19.83-5.707 40.354-5.707 61.277 0 183.585 148.738 332.354 332.292 332.354 132.307 0 246.477-77.339 300-189.247 10.6-22.292 18.753-45.907 24.246-70.584 1.323-6.077 2.554-12.2 3.569-18.385 4.785-19.861 13.4-34.677 43.092-43.784 66.37-20.246 64.093 85.492 98.954 143.954s81.016 90.169 112.446 56.43c31.554-33.707 70.462-181.277 70.462-181.277 16.138-59.046-4.985-89.261-37.293-103.461m-796.708-66.446c-19.739-10.631-21.939-20.785-21.939-34.046 0 0 2.2-25.847 25.816-32.37 23.646-6.538 42.753 16.693 42.753 36.216 0 19.569-26.922 40.815-46.63 30.2" class="svgpath" data-index="path_0"/><script/></svg>