<svg xmlns="http://www.w3.org/2000/svg" width="64" height="64" class="icon" viewBox="0 0 1024 1024"><path fill="#6051a5" d="M36.214 535.158c0 83.917 21.821 162.734 60.098 231.096l46.572-44.529c-28.529-56.002-44.61-119.408-44.61-186.567 0-227.354 184.304-411.658 411.658-411.658S921.59 307.804 921.59 535.158c0 64.717-14.935 125.947-41.544 180.429l45.26 47.498c37.187-67.62 58.343-145.306 58.343-227.927 0-261.632-212.09-473.718-473.717-473.718S36.214 273.53 36.214 535.158m130.324 0c0 46.505 9.19 90.864 25.856 131.364l36.982-36.987a297.6 297.6 0 0 1-15.258-94.377c0-164.516 133.366-297.882 297.882-297.882s297.882 133.366 297.882 297.882a297.5 297.5 0 0 1-16.308 97.464l36.818 36.818c17.434-41.283 27.07-86.656 27.07-134.282 0-190.792-154.67-345.462-345.462-345.462s-345.462 154.67-345.462 345.462m112.2 49.008a239 239 0 0 1-4.629-46.94c0-131.384 106.507-237.895 237.891-237.895s237.89 106.51 237.89 237.895c0 16.113-1.597 31.847-4.654 47.058l-29.21-29.21c.508-5.882.769-11.837.769-17.848 0-113.106-91.69-204.8-204.795-204.8-113.1 0-204.795 91.694-204.795 204.8 0 5.97.256 11.879.758 17.72zm-182.36 329.55H0l494.96-500.829.492.486v96.538zm139.93-12.412h-70.446L478.9 584.556v71.275zm119.286-14.479h-42.393l149.15-150.917v42.895L355.6 886.825zm123.31-167.665-.102.103h.102zm448.717 194.555H1024L529.04 412.887l-.492.486v96.538zm-139.93-12.41h70.447l-313.042-316.75v71.276zm-119.285-14.48h42.388L561.65 735.908v42.895zM545.096 719.16l.102.103h-.102z"/></svg>