<svg xmlns="http://www.w3.org/2000/svg" width="308.0078125" height="200" class="icon" viewBox="0 0 1577 1024"><path fill="#F44250" d="M1096.136 379.71c-37.015-11.646-56.13-7.718-94.97-11.964-60.03-6.543-83.96-30.016-94.099-90.392-5.671-33.722 1.024-83.075-13.472-113.63-27.72-58.246-92.591-84.388-157.753-69.477-55.024 12.615-100.808 67.597-103.339 124.045-2.905 64.457 33.82 119.438 96.879 138.416 29.946 9.032 61.773 13.583 93.061 15.879 57.375 4.191 61.788 36.087 77.32 62.34 9.78 16.543 19.255 32.851 19.255 82.204s-9.544 65.66-19.268 82.217c-15.52 26.197-34.663 43.349-92.038 47.581-31.288 2.31-63.17 6.861-93.075 15.907-63.046 19.033-99.77 73.96-96.879 138.403 2.545 56.448 48.315 111.443 103.339 124.044 65.176 14.98 130.048-11.204 157.767-69.478 14.55-30.554 22.518-65.176 28.203-98.884 10.208-60.39 34.123-83.85 94.099-90.392 38.84-4.246 79.022 0 115.413-20.678 38.453-28.093 72.812-70.267 72.812-128.72 0-58.44-37.015-119.716-93.255-137.42"/><path fill="#121212" d="M480.186 654.108c-75.675 0-137.406-61.842-137.406-137.669 0-75.813 61.731-137.655 137.406-137.655 75.66 0 137.406 61.828 137.406 137.655 0 75.758-61.8 137.67-137.406 137.67M227.048 933.873c-75.55-.18-137.102-62.271-136.923-138.153.18-75.758 62.161-137.42 137.905-137.172 75.605.18 137.157 62.272 136.908 138.154-.18 75.688-62.147 137.35-137.89 137.17m1021.004 0c-75.8.415-138.015-60.999-138.444-136.632-.415-75.937 60.888-138.264 136.383-138.693 75.799-.415 138.001 61 138.43 136.632.415 75.868-60.874 138.264-136.383 138.693z"/></svg>