<svg xmlns="http://www.w3.org/2000/svg" width="172.1875" height="64" class="icon" viewBox="0 0 2755 1024"><path fill="#a067f0" d="M0 380.83c0 210.335 170.496 380.831 380.83 380.831V0C170.496 0 0 170.496 0 380.83m888.588 253.88c0-210.31-170.496-380.831-380.83-380.831v761.66c210.334 0 380.83-170.495 380.83-380.83M2200.21 61.683c0 22.357-19.773 40.497-44.178 40.497-24.43 0-44.203-18.14-44.203-40.497 0-22.382 19.773-40.521 44.203-40.521 24.381 0 44.178 18.14 44.178 40.52m-915.26 158.574c-8.753-62.416-66.488-93.306-134.12-93.306-65.317 0-124.782 32.06-124.782 96.207 0 44.324 25.649 73.484 67.048 85.138 15.798 4.584 33.67 9.436 53.394 14.824 7.948 2.17 16.213 4.388 24.747 6.753 22.747 6.412 35.571 14.58 35.571 30.915 0 20.407-19.821 30.306-44.91 30.306-33.816 0-58.88-16.335-65.292-47.226l-81.066 12.24c12.239 71.728 65.316 103.228 144.628 103.228 71.704 0 127.707-36.742 127.707-102.059 0-53.638-32.085-78.14-99.133-95.036a1436 1436 0 0 1-53.638-14.58c-19.261-5.852-30.354-12.849-30.354-28.575 0-15.75 21.577-25.088 48.42-23.917 28.575 1.17 47.787 17.505 50.713 39.643zm109.104 95.036h221.013c8.729-109.616-44.324-188.342-147.529-188.342-95.646 0-159.207 68.218-159.207 170.276 0 93.867 65.316 162.11 163.84 162.11 58.904 0 138.776-60.32 139.97-113.714h-79.31c-12.24 26.234-36.157 39.644-65.293 39.644-42.569 0-67.657-26.234-73.484-69.974m73.484-119.54c44.886 0 61.806 20.993 67.048 58.32h-138.191c7.558-34.987 28.574-58.32 71.119-58.32zm512.78-66.17c26.234 0 51.59 6.681 71.412 27.673 27.404 28.575 30.306 61.245 30.306 101.474v191.853h-80.457V264.558c0-22.748-4.096-36.742-15.165-48.982-9.923-11.069-17.164-15.433-32.33-15.433-15.164 0-23.503 4.95-33.401 16.019-12.264 13.994-14.58 27.989-14.58 43.739V450.56h-80.457V264.558c0-22.748-4.096-36.742-15.19-48.982-9.898-11.069-17.993-15.433-33.158-15.433s-22.674 4.95-32.573 16.019c-12.239 13.994-14.58 27.989-14.58 43.739V450.56h-79.896V135.704h69.973v33.841c22.187-26.258 48.324-39.936 83.31-39.936 26.258 0 52.42 6.68 72.241 27.673 5.851 6.436 11.069 12.848 14.58 19.26 22.162-30.33 51.492-46.933 89.965-46.933zm131.511 7.949v313.051h79.312V137.51h-79.312zM1265.42 572.294V465.432h79.897v411.234h-69.974v-29.477c-9.923 22.114-50.151 38.205-85.138 38.205-86.894 0-145.213-71.704-145.213-166.18 0-96.208 58.904-166.18 149.285-166.18 27.989 0 51.321 6.996 71.143 19.236zm-136.436 146.944c0 53.077 22.723 95.622 74.045 95.622 53.078 0 72.314-38.473 72.314-95.622s-19.821-95.622-69.388-95.622c-53.077 0-76.97 43.154-76.97 95.622m325.73 22.162h220.989c8.777-109.64-44.3-188.342-147.505-188.342-95.646 0-159.208 68.217-159.208 170.252 0 93.89 65.293 162.133 163.84 162.133 58.905 0 137.021-45.592 139.947-113.713h-79.287c-12.239 26.234-36.157 39.644-65.316 39.644-42.57 0-67.633-26.234-73.46-69.974m73.46-119.54c44.91 0 61.805 20.968 67.047 58.32h-138.19c7.582-35.011 28.574-58.32 71.143-58.32m304.957-68.802c67.657 0 125.39 30.89 134.144 93.281l-81.067 14.58c-2.926-22.162-22.162-38.473-50.712-39.644-26.844-1.17-48.421 8.168-48.421 23.894 0 15.75 11.069 22.747 30.33 28.574a1442 1442 0 0 0 53.638 14.58c67.048 16.92 99.133 41.423 99.133 95.061 0 65.317-55.979 102.035-127.707 102.035-79.312 0-132.389-31.476-144.604-103.205l81.042-12.24c6.413 30.916 31.5 47.227 65.317 47.227 25.064 0 44.91-9.899 44.91-30.306 0-16.335-12.849-24.503-35.596-30.915-8.534-2.34-16.775-4.608-24.723-6.753-19.748-5.364-37.595-10.24-53.394-14.824-41.399-11.654-67.048-40.814-67.048-85.138 0-64.147 59.465-96.207 124.782-96.207zm166.107 8.728V876.69h79.311V561.786zm343.284 25.088v-25.088h69.388v336.457c0 15.775-1.17 29.184-4.657 42.594-15.165 57.71-80.457 83.163-149.87 83.163-53.637 0-110.786-26.722-134.704-67.535l73.46-35.596c9.923 18.675 39.667 28.5 61.83 28.5 35.572 0 75.825-17.31 74.63-52.272v-31.5c-20.407 12.824-45.47 19.822-75.215 19.822-86.894 0-145.213-71.705-145.213-166.18 0-96.208 58.904-166.181 149.284-166.181 32.67 0 68.145 14.262 81.067 33.816M2196.14 719.238c0 53.077 22.747 95.622 74.069 95.622 53.077 0 72.314-38.473 72.314-95.622s-19.822-95.622-69.388-95.622c-53.078 0-76.971 43.154-76.971 95.622zm508.17-132.388c-30.33-29.72-68.242-36.133-105.545-33.792-28.575 1.73-60.66 12.239-81.067 36.717a33.3 33.3 0 0 1-4.072 4.681v-32.67h-69.973V876.69h79.872V739.67c0-21.602.585-46.08 3.511-60.075 3.486-17.506 11.654-31.5 23.333-40.229 10.483-7.607 22.723-11.678 37.302-12.264 21.578-.585 38.498 5.852 49.567 18.067 16.335 17.505 20.992 50.151 20.992 82.822v148.7h80.481V724.48c0-48.981 0-103.79-34.401-137.606z"/></svg>