<svg xmlns="http://www.w3.org/2000/svg" width="644" height="435" viewBox="0 0 644 435"><defs><linearGradient id="a" x1="40.855%" x2="74.131%" y1="31.719%" y2="59.893%"><stop offset="0%" stop-color="#535bf2" stop-opacity="0"/><stop offset="100%" stop-color="red"/></linearGradient><linearGradient id="b" x1="42.121%" x2="65.327%" y1="56.078%" y2="39.384%"><stop offset="0%" stop-color="#535bf2" stop-opacity="0"/><stop offset="100%"/></linearGradient></defs><path fill="url(#a)" d="M298.101 227.366c2.391 5.6 13.07 27.839 15.264 33.295-13.355 22.14-16.488 27.885-44.407 62.98C155.339 441.287 67.678 460.298 13.96 405.337q-7.873-8.41-13.96-21.87 1.715 3.087 4.53 6.804l.679.883.35.448.724.91.754.926.785.944.815.961.846.979.876.996.906 1.013.938 1.031.48.522.983 1.057.503.535 1.028 1.083.526.548c66.356 60.072 132.546 8.534 222.416-91.044q20.349-23.662 59.962-84.697m34.703-190.061c42.053 36.145 42.053 92.233 10.507 172.34-2.417-5.89-13.066-29.436-15.736-35.468 24.834-68.036 25.41-100.38-10.306-132.635-20.547-18.555-35.138-19.319-62.918-14.8l-1.819.303q-.456.077-.914.157l-1.84.328-1.854.342-.933.177-21.905 4.338v-.04l.483-.176c43.96-16.015 81.711-17.295 107.235 5.134" transform="translate(278 -.052)"/><path fill="url(#b)" d="M305.062 153.35c66.669 125.717 70.877 193.743 48.67 241.331-8 17.148-27.95 28.999-36.532 33.608-21.54 11.568-66.138 5.808-106.006-5.873l-5.976-2.544c20.033 6.443 63.57 14.86 87.042 8.417 77.085-21.16 67.914-112.798-9.564-256.715S120.448-11.821 53.627 15.314c-6.416 2.605-12.01 6.165-16.822 10.575l.515-.549 1.033-1.084.517-.534 1.038-1.054c7.453-7.476 15.18-13.311 23.143-15.997 60.427-20.382 164.163-.12 242.011 146.679" transform="translate(278 -.052)"/><path fill="#535bf2" d="M-.016 285.688v-30.625q12.031 8.438 24.61 13.671 12.577 5.235 21.172 5.235 8.905 0 15.312-4.375 6.406-4.375 6.406-10.469 0-6.25-4.14-10.39t-17.89-11.954q-27.501-15.312-36.017-26.172Q.922 199.751.922 186.937q0-16.562 12.89-27.03 12.891-10.47 33.204-10.47 21.094 0 43.28 11.875v28.125q-25.311-15.312-41.405-15.312-8.281 0-13.36 3.516t-5.078 9.297q0 5 4.61 9.53 4.608 4.532 16.171 10.938l10.157 5.781q35.937 20.313 35.937 45 0 17.657-13.828 28.985T47.953 298.5q-12.813 0-22.812-2.734T-.016 285.687Zm100-110.625 53.438-52.5v29.687h45.469v25.625h-45.47v70.469q0 24.687 20.47 24.687 15.313 0 32.343-10.312v26.562q-16.406 9.219-35.78 9.219-19.533 0-32.5-11.406-4.064-3.438-6.72-7.735-2.656-4.296-4.453-11.25-1.797-6.952-1.797-26.484v-63.75h-25v-2.813Zm214.688-22.813h32.031L244.984 369.282h-31.719l48.907-104.063-55.625-112.97h32.343l38.75 81.095zm39.812-74.531h28.438v218.28h-28.438zm171.032 148.906H424.422q1.093 20.625 13.828 32.813 12.735 12.187 32.89 12.187 28.125 0 51.876-17.5v27.813q-13.125 8.75-26.016 12.5t-30.234 3.75q-23.75 0-38.438-9.844t-23.515-26.485q-8.829-16.64-8.829-38.515 0-32.813 18.594-53.36c18.594-20.547 28.49-20.547 48.281-20.547q28.594 0 45.625 20 17.032 20 17.032 53.594zm-100.47-17.031h72.345q-1.095-17.031-10.157-26.25t-24.375-9.219q-15.312 0-25.078 9.219t-12.734 26.25Z"/></svg>