<svg xmlns="http://www.w3.org/2000/svg" width="114" height="29" class="SVGInline-svg" viewBox="0 0 114 29"><g fill="#d946ef" fill-rule="evenodd"><path d="M14.767 27.573c3.11-11.19 3.02-11.24 5.267-19.217l.54.314c.294.17.534.03.534-.31V4.557c.596-2.102 1.064-3.726 1.2-4.215h2.435l4.045 3.772-2.656 2.31 2.01 2.186L14.9 27.573c-.065.107-.155.083-.135 0z"/><path d="M16.214 3.457c.12 0 .217.066.217.15v1.95c0 .08-.09.148-.21.148h-3.27c-.12 0-.22-.067-.22-.15v-1.95c0-.082.1-.148.22-.148h3.27zm4.036-2.16-3.598 2.09q.065.099.067.22v1.95c0 .1-.04.19-.11.265l3.63 2.11c.24.145.45.027.45-.26V1.56c0-.288-.21-.406-.45-.262zm-7.813 4.26v-1.95c0-.08.025-.155.066-.22l-3.598-2.09c-.247-.143-.45-.025-.45.262v6.11c0 .29.202.4.45.26l3.635-2.11a.42.42 0 0 1-.104-.27z"/><path d="M14.246 27.573h.134c-3.11-11.19-3.02-11.24-5.266-19.217l-.54.314c-.294.17-.535.03-.535-.31V4.557C7.44 2.454 6.97.83 6.83.34H4.4L.36 4.113l2.655 2.31-2.01 2.186 13.24 18.96z"/><ellipse cx="14.475" cy="8.787" rx=".982" ry=".988"/><ellipse cx="14.475" cy="14.664" rx=".982" ry=".988"/><ellipse cx="14.475" cy="20.541" rx=".982" ry=".988"/><path d="M32.043 21.28q-1.026-.36-1.463-.854-.44-.5-.44-1.09c0-.393.11-.727.33-.988a1.08 1.08 0 0 1 .867-.394q.541 0 .956.32c.276.215.415.515.415.91 0 .394-.24.714-.72.975q.595.51 1.817.51c1.764 0 2.645-.5 2.645-1.51 0-.63-.558-1.13-1.675-1.51-.46-.16-.922-.33-1.385-.5q-.697-.27-1.214-.78c-.517-.51-.532-.77-.563-1.26 0-.72.235-1.31.704-1.81.882-.95 2.212-1.41 3.975-1.41.862 0 1.63.16 2.298.49s1.002.75 1.002 1.28c0 .52-.134.89-.4 1.12-.268.23-.582.34-.936.34s-.655-.09-.902-.29-.367-.46-.367-.81.2-.64.608-.9q-.38-.27-1.303-.27t-1.663.27c-.5.18-.75.43-.75.74s.18.57.54.78.79.4 1.3.58 1.02.38 1.53.61.95.56 1.31.99q.54.645.54 1.59c0 .63-.26 1.19-.77 1.71-.97.97-2.3 1.45-3.98 1.45-.89 0-1.68-.12-2.36-.36l.02.03zm10.95-9.005q1.614-5.011 3.29-8.395l1.94.157c-.114.334-.396 1.142-.845 2.412q-1.455 4.215-1.88 5.82h2.46l-.248 1.03h-2.54c-.954 2.96-1.435 4.77-1.435 5.41q0 .96.2.96c.134 0 .248-.03.355-.08.28-.16.888-.92 1.817-2.29l.64.58q-1.042 1.905-2.157 2.82c-.74.61-1.35.92-1.83.92s-.842-.17-1.09-.5q-.367-.51-.366-1.29.001-1.995 1.396-6.54h-1.644l.254-1.04h1.71l-.025-.02zm5.638 3.695-1.01-.61a9.4 9.4 0 0 1 1.95-2.396c.78-.688 1.48-1.03 2.09-1.03 1 0 1.51.448 1.51 1.35 0 .38-.26 1.29-.77 2.747-.51 1.46-.77 2.38-.77 2.76 0 .39.03.64.08.75.06.12.17.17.35.17.95 0 1.93-.35 2.94-1.07 1.01-.71 1.67-1.5 1.97-2.37l1.1-3.19c.11-.32.3-.58.54-.77.24-.18.47-.28.7-.28.224 0 .404.08.544.22.14.15.214.34.214.58s-.05.5-.14.76l-1.19 3.47c-.657 2.05-1.67 4.07-3.05 6.05 1.2.13 2.27.34 3.21.65l-.13.87c-1.44-.29-2.71-.46-3.82-.51-1.01 1.31-2.05 2.35-3.11 3.13q-1.592 1.17-2.77 1.17-1.185 0-1.77-.48c-.4-.32-.59-.75-.59-1.3s.21-1.05.63-1.51c.41-.45.97-.82 1.673-1.1 1.42-.59 3.05-.92 4.89-1 .143-.16.5-.75 1.05-1.76.543-1 .85-1.64.89-1.9-1.85 1.57-3.476 2.35-4.885 2.35-.56 0-.99-.19-1.25-.59-.26-.39-.39-.87-.39-1.45 0-.57.22-1.55.657-2.95.44-1.39.66-2.18.66-2.38 0-.19-.05-.28-.134-.28-.087 0-.19.02-.29.07a1 1 0 0 0-.304.22l-.276.28s-.175.21-.275.37l-.23.36q-.33.52-.42.69l-.04-.05zm4.53 8.097q-1.26.079-2.58.455c-1.69.48-2.53 1.044-2.53 1.69q0 .581.72.58c.72-.001 1.27-.347 2.35-1.042s1.77-1.254 2.05-1.684h.01zM66.23.56h2.536q-.672 1.16-2.064 5.145-1.394 3.985-2.545 8.02c-.77 2.686-1.15 4.33-1.15 4.932q0 .901.22.903c.442 0 1.123-.66 2.052-1.984l.66.628c-.46.795-.96 1.463-1.49 2.004-.94.963-1.7 1.442-2.29 1.442-1.07 0-1.6-.64-1.6-1.924 0-1.91.63-4.918 1.9-9.034C63.74 6.576 65 3.208 66.24.575l-.01-.013zm3.412 17.744q.094 1.8 2.428 1.8.861 0 1.793-.492.93-.494 1.512-1.167l.673.438q-1.3 2.178-4.147 2.663c-.41.062-.82.093-1.2.093-1.13 0-2.06-.38-2.82-1.12-.75-.75-1.12-1.66-1.12-2.74s.33-2.07.99-2.99 1.48-1.63 2.47-2.13 1.96-.76 2.92-.76 1.8.22 2.5.65c.71.43 1.07 1.03 1.08 1.77.02.74-.2 1.37-.64 1.92-.44.53-1.01.95-1.7 1.23-1.36.55-2.7.82-4.02.82l-.67-.03-.01.01zm-.093-.862q1.725-.062 2.79-.555 1.05-.492 1.47-1.127c.27-.423.41-.866.41-1.33q0-.698-.36-1.035c-.24-.225-.5-.336-.77-.336-.67 0-1.29.23-1.85.69s-.99 1.03-1.28 1.69c-.3.66-.44 1.33-.44 2h.01zM83.64.562h2.536q-.675 1.156-2.066 5.142a145 145 0 0 0-2.546 8.02q-1.151 4.031-1.15 4.932 0 .901.218.902.657 0 2.05-1.99l.658.627q-.689 1.19-1.49 2.005-1.413 1.44-2.284 1.44c-1.07 0-1.597-.642-1.597-1.927 0-1.91.62-4.922 1.89-9.036S82.39 3.19 83.63.56h.007zm3.326 21.078q-.666 0-1.042-.408-.377-.405-.376-1.12 0-.712.367-1.94.367-1.23.737-2.233c.246-.67.368-1.12.368-1.34 0-.23-.072-.34-.22-.34q-.547 0-1.768 2.16l-1.05-.61c1.536-2.59 2.945-3.89 4.23-3.89.875 0 1.315.55 1.315 1.66 0 .32-.105.84-.314 1.55l-1.127 3.22c-.116.3-.174.57-.174.82s.095.36.283.36c.354 0 1.008-.66 1.958-1.97l.656.61c-.57 1.04-1.24 1.88-2.02 2.5-.78.63-1.39.94-1.83.94zM91.42 7.302q0 .635-.423 1.15c-.282.347-.66.523-1.142.523-.48 0-.835-.14-1.076-.428-.24-.287-.37-.648-.37-1.09 0-.44.15-.82.45-1.162.29-.34.68-.508 1.15-.508.46 0 .82.154 1.05.448s.35.662.35 1.082l-.01-.014zm4.59 9.686q3.27-5.058 5.87-5.058.876 0 1.316.533c.292.355.438.808.438 1.35 0 .54-.243 1.483-.728 2.82q-.73 2.004-.728 2.486-.001.48.235.48c.208 0 .515-.22.924-.65.407-.44.768-.89 1.082-1.37l.66.63c-.63 1.14-1.31 1.99-2.06 2.58-.75.58-1.35.86-1.82.86s-.82-.16-1.09-.46q-.39-.465-.39-1.26c0-.795.21-1.4.63-2.61s.63-2.06.63-2.57-.17-.77-.52-.77c-.4 0-.86.25-1.41.76s-1.07 1.13-1.58 1.86c-.82 1.17-1.65 2.52-2.49 4.04l-.42.75h-2.2l.48-1.48c.91-2.72 1.36-4.33 1.36-4.83 0-.51-.08-.76-.25-.76q-.45 0-1.08 1.08c-.09.17-.17.3-.23.4s-.14.22-.21.36c-.08.14-.13.23-.15.26l-1.05-.61c.81-1.33 1.56-2.3 2.24-2.94.67-.63 1.37-.94 2.08-.94.32 0 .6.13.83.4s.354.59.354.98-.037.76-.097 1.13-.12.68-.2.92l-.26.95q-.165.575-.18.653l-.03-.03zm12.023-4.713q1.614-5.011 3.287-8.395l1.942.157c-.116.334-.397 1.142-.846 2.412q-1.455 4.215-1.88 5.82h2.46l-.248 1.03h-2.532c-.962 2.96-1.435 4.77-1.435 5.41s.07.96.2.96c.14 0 .25-.03.36-.08.28-.16.89-.92 1.82-2.29l.64.58c-.7 1.27-1.41 2.21-2.16 2.82-.74.61-1.35.92-1.83.92s-.84-.17-1.09-.5q-.36-.51-.36-1.29c0-1.33.47-3.51 1.4-6.54h-1.64l.26-1.04h1.71l-.03-.02z"/></g></svg>