<svg xmlns="http://www.w3.org/2000/svg" width="40" height="40" fill="none" viewBox="0 0 40 40"><path fill="#009BFF" d="M15.004 37H8.528a.75.75 0 0 1-.742-.854l1.261-7.123h7.985L15.731 36.4a.75.75 0 0 1-.727.6"/><path fill="url(#a)" d="M33.234 12.989H11.866l1.405-7.986h21.081a.742.742 0 0 1 .799.887l-1.182 6.5a.734.734 0 0 1-.735.598"/><path fill="#0064FF" d="M11.866 12.987H4.759a.75.75 0 0 1-.75-.862l1.157-6.508a.75.75 0 0 1 .735-.615h7.37z"/><path fill="url(#b)" d="M17.04 28.999h-8l2.826-15.995h8.001z"/><defs><linearGradient id="a" x1="12.551" x2="33.8598" y1="9.00394" y2="12.8395" gradientUnits="userSpaceOnUse"><stop offset="0.03" stop-color="#E9FFFF"/><stop offset="0.17" stop-color="#C4FAC9"/><stop offset="0.33" stop-color="#A0F694"/><stop offset="0.48" stop-color="#82F269"/><stop offset="0.63" stop-color="#6AEF47"/><stop offset="0.76" stop-color="#5AED2F"/><stop offset="0.89" stop-color="#4FEB20"/><stop offset="1" stop-color="#4CEB1B"/></linearGradient><linearGradient id="b" x1="15.8567" x2="16.0078" y1="12.4215" y2="27.4702" gradientUnits="userSpaceOnUse"><stop stop-color="#009BFF"/><stop offset="0.35" stop-color="#0081FE"/><stop offset="0.75" stop-color="#006AFD"/><stop offset="1" stop-color="#0062FD"/></linearGradient></defs></svg>