<svg xmlns="http://www.w3.org/2000/svg" width="256" height="256" fill="none" viewBox="0 0 256 256"><g clip-path="url(#a)"><mask id="b" width="256" height="256" x="0" y="0" maskUnits="userSpaceOnUse" style="mask-type:luminance"><path fill="#fff" d="M256 0H0v256h256z"/></mask><g mask="url(#b)"><path stroke-linecap="round" stroke-linejoin="round" stroke-opacity="0.35" stroke-width="12" d="m72.978 273.931.348-94.741" style="stroke:#888"/><path d="M34.008 82.463h78.637m-63.25-34.532v33.503m47.862-33.503v33.503"/><path stroke-linecap="round" stroke-linejoin="round" stroke-width="12" d="M112.645 82.463v52.198c0 7.839-.839 12.424-2.769 17.284-1.93 4.861-4.809 10.287-8.471 14.021a39.323 39.323 0 0 1-56.158 0c-3.661-3.734-6.541-9.16-8.47-14.021-1.93-4.86-2.872-12.056-2.77-17.284V82.463" style="stroke:#333"/><path d="m182.667-18.237-.348 94.74m39.318 96.727H143m63.25 34.533v-33.504m-47.862 33.504V174.26M143 173.23v-52.197c0-7.839.839-12.424 2.769-17.285 1.93-4.86 4.809-10.286 8.471-14.02a39.325 39.325 0 0 1 56.158 0c3.661 3.734 6.541 9.16 8.471 14.02 1.93 4.861 2.871 12.057 2.768 17.285v52.197"/></g></g><defs><clipPath id="a"><path fill="#fff" d="M0 0h256v256H0z"/></clipPath></defs></svg>