<svg xmlns="http://www.w3.org/2000/svg" width="502px" height="477px" viewBox="0 0 502 477"><defs><linearGradient id="a" x1="0.00542331488%" x2="100.011743%" y1="50.0074349%" y2="50.0074349%"><stop offset="0.3030465%" stop-color="#3668E7"/><stop offset="100%" stop-color="#44BAE1"/></linearGradient><linearGradient id="b" x1="0.0117592657%" x2="100.006481%" y1="50.0044985%" y2="50.0044985%"><stop offset="0%" stop-color="#44BCE1"/><stop offset="36.72%" stop-color="#44BAE1"/><stop offset="54.5%" stop-color="#43B2E2"/><stop offset="68.19%" stop-color="#41A5E2"/><stop offset="79.8%" stop-color="#3F93E4"/><stop offset="89.99%" stop-color="#3C7BE5"/><stop offset="99.21%" stop-color="#385EE7"/><stop offset="100%" stop-color="#385BE7"/></linearGradient><linearGradient id="c" x1="0.0148416278%" x2="100.005996%" y1="50.0005568%" y2="50.0005568%"><stop offset="0%" stop-color="#44BCE1"/><stop offset="14.76%" stop-color="#43B6E1"/><stop offset="34.89%" stop-color="#41A4E2"/><stop offset="58.12%" stop-color="#3E88E4"/><stop offset="83.49%" stop-color="#3960E7"/><stop offset="86.36%" stop-color="#385BE7"/></linearGradient></defs><g fill="none"><path fill="url(#a)" d="M241.7 169.1c-54.2 5-96.6 50.5-96.6 106 0 58.8 47.7 106.4 106.4 106.4 0 0 217.3 36.1 165.9-227.7 29.6 49.6 56.6 99.5 56.6 99.5s66 113.9-7.2 183.5c0 0-42.5 39.8-121.1 39.8h-73.9c-137.6-24.2-149.2-146-149.2-146-9.5-156.6 119.1-162 119.1-162z"/><path fill="url(#b)" d="M417.4 153.8c51.4 263.8-165.9 227.7-165.9 227.7 58.8 0 106.4-47.6 106.4-106.4 0-9.9-1.4-19.5-3.9-28.6v-.1c-1.1-5.7-17.6-84.2-97.7-114.7-36.5-13.9-76.8-12.9-113.4.6-25.7 9.5-55.9 26-78.2 54.4L120.2 89c12.7-22.3 29.3-42.1 49.5-57.9 35.3-27.4 90.9-50.4 154.2-2.9 0 0 19 10.8 57.9 68.7 11.2 16.7 23.7 36.8 35.6 56.9"/><path fill="url(#c)" d="M122.6 330.6s11.5 121.8 149.2 146H153.4c-30.3 0-60.3-7-87-21.4-35.6-19.3-71.8-54.6-65.2-117.1C6 292.6 61.8 191.9 61.8 191.9l2.9-5.1v-.1c22.2-28.5 52.4-44.9 78.2-54.4 36.6-13.5 76.9-14.5 113.4-.6 80.1 30.6 96.6 109.1 97.7 114.7-12.5-44.8-53.7-77.7-102.5-77.7-3.3 0-6.6.2-9.8.4v-.4c0-.1-128.6 5.3-119.1 161.9"/></g></svg>