<svg xmlns="http://www.w3.org/2000/svg" width="96" height="96" class="icon" viewBox="0 0 1024 1024"><path fill="#FF4448" d="m574.3 448.1 31.5 1.8 2.4-39.4-31.6-2.6zm106.3 7.8 1.1-38.9-35.1-2.5v38.6"/><path fill="#FF4448" d="M946.7 317.5c0-12.8-10.4-23.2-23.2-23.2L88.1 327.1c-12.8 0-23.2 10.4-23.2 23.2L63 547.6c0 12.8 10.4 23.2 23.2 23.2l839.2 30.9c12.8 0 23.2-10.4 23.2-23.2zM108.4 514l-.7-141.1 63-23.5L191 394l-53.8-3 5.3 32.4 53.1-8.4 2 33.1-51 .5.8 29.7 48.9 1.6 1.5 24.1zm148.9-15.5-1.3-17.6 9.6-1.9-.3-70.1-26.9-3.6L251.9 535l-40.5 6.7-4-171.9 82.1-4.2 13.2 132.6zm137.1 20.9-54.5-1.2 14.3-85.9-32 8v-38.9l16.9 1.3-10.2-35.3 48.9 1.3-11.8 35.8 13.3 1 3 92.5 12 .5v20.9zm10.8 7.1 6.2-104.8 70.5 2.6 5.6-40.7-80.4 5.2.8-39.4 115.1 5.2-4.4 102.4-76.9-2.6 4.6 45.7 53.7-11.2 2.3-15.6h17.4l7.3 53.2zm241.4-50.2 4.3 64.9h-50.2l3.6-63.6-69.7 2.1 9.2-100.7 66-1.4 2.9-45.8 30 1.4 1.9 48.3 66.7-2.2 5.9 100.7m161.5 87.2L807 501l-54.1 47.2-19.2-18.4 43.6-52.9-38.7-31.7 10.8-21.5 49.4 26.7 35.1-42.5-111.7-5.2v-23.3l77.1-5.7-27.7-26.5 12.6-18.4 53.9 19.9-15.2 23.1 77.1-7.7v50.3l-38.4-5.3 24.3 22.8-46.4 40.5 77.8 36.7z"/><path fill="#666A89" d="M214.6 645.7v-17h12.6v63h-21.7c-4.4 0-7.7-.3-10-1-5.3-1.7-9.3-5-12-10q-2.7-4.95-2.7-12.3c0-7.9 2.6-14 7.9-18.3 3.5-2.9 8.1-4.3 14.1-4.3h11.8zm0 36.1v-26.3h-9.2c-4 0-7.1 1.4-9.2 4.1-1.8 2.3-2.7 5.2-2.7 8.8 0 5.2 1.5 9 4.5 11.2 2.1 1.5 4.5 2.3 7.4 2.3h9.2zm46.1-36.8c8.5 0 14.8 2.5 18.8 7.4 3.7 4.5 5.6 10.1 5.6 16.9 0 7.2-2.3 12.9-7 17.2-4.3 3.9-10.1 5.9-17.6 5.9q-11.55 0-18-6.6-6-6-6-17.4c0-6.4 1.9-11.8 5.8-16 4.2-4.9 10.4-7.3 18.4-7.4m.1 9.6c-7.6 0-11.4 4.7-11.4 14.2 0 3.8.6 6.8 1.9 8.8q3.15 5.1 9.6 5.1c7.5 0 11.2-4.7 11.2-14.1 0-9.2-3.7-13.8-11.3-14m72-8.9v9.8h-15.1c-5.1 0-8.6 1.1-10.6 3.4-1.9 2.1-2.8 5.4-2.8 9.8 0 4.9 1.5 8.5 4.6 10.8 1.3.9 2.6 1.5 4.1 1.8s3.5.5 6.2.5h13.6v9.8h-17.3c-4.7 0-8.3-.5-11-1.4s-5.1-2.6-7.2-4.9c-4-4.4-5.9-10-5.9-16.8 0-8.2 2.4-14.3 7.1-18.3 1.9-1.6 4.2-2.8 6.8-3.5s6.1-1 10.3-1zm49.6 0v9.8H360c-2.6 0-4.2.1-4.9.4-1.4.5-2.2 1.7-2.2 3.7 0 1.6.7 2.9 2.1 3.8.8.5 2.8.8 6.1.8h7.5c4.8 0 8.6 1 11.3 3 3.1 2.3 4.6 5.6 4.6 10 0 3.3-.9 6.4-2.8 9.2-1.4 2.2-3.1 3.7-5 4.3-2 .7-5.3 1-10 1h-26.1v-9.8h22.6c2.8 0 4.7 0 5.7-.1 2.3-.3 3.4-1.5 3.4-3.9 0-1.9-.8-3.2-2.3-3.9-.8-.4-2.6-.6-5.5-.6h-7.6q-4.5 0-6.9-.6t-4.5-2.1c-1.7-1.2-3-2.8-4-5-1-2.1-1.5-4.4-1.5-6.7 0-4.6 1.7-8.2 5-10.9 2-1.6 5.5-2.5 10.5-2.5h26.9zm50.2 0v9.8h-15.1c-5.1 0-8.6 1.1-10.6 3.4-1.9 2.1-2.8 5.4-2.8 9.8 0 4.9 1.5 8.5 4.6 10.8 1.3.9 2.6 1.5 4.1 1.8s3.5.5 6.2.5h13.6v9.8h-17.3c-4.7 0-8.3-.5-11-1.4s-5.1-2.6-7.2-4.9c-4-4.4-5.9-10-5.9-16.8 0-8.2 2.4-14.3 7.1-18.3 1.9-1.6 4.2-2.8 6.8-3.5s6.1-1 10.3-1zm22.2-17v17h12.9q5.7 0 9 .9c2.2.6 4 1.7 5.5 3.2 2.9 2.6 4.3 7.1 4.3 13.3v28.6H474v-26.1c0-2.5-.1-4.2-.3-5.2s-.7-1.9-1.4-2.7q-1.95-1.95-7.2-2.1h-10.3v36.1h-12.6v-63zm43.7 12.3v-12.3h12.6V641zm0 4.7h12.6v46h-12.6zm25.1 0h24.3c3.6 0 6.4.3 8.4.8 1.9.5 3.7 1.5 5.2 2.9 3.2 3 4.8 7.6 4.8 14v28.3h-12.6V662c0-2.3-.5-3.9-1.5-4.9s-2.7-1.5-5-1.5h-10.9v36.1h-12.6v-46zm86.2 18c0-3.2-.6-5.4-1.9-6.5s-3.9-1.7-7.7-1.7h-21.3v-9.8h21.3c3.8 0 6.5.1 7.9.2 1.4.2 2.9.5 4.4.9 7 2.6 10.3 9 9.9 19v25.9h-26.6c-4.8 0-8.1-.1-9.9-.4s-3.4-.9-4.8-1.7c-3.7-2.5-5.6-6.3-5.6-11.4 0-3.1.7-5.8 2.2-8.3 1.5-2.4 3.4-4.1 5.9-5 2.1-.8 5.7-1.1 10.7-1.1h15.5zm0 9.8h-16.7c-1.4 0-2.6.4-3.4 1.1-.8.8-1.3 1.8-1.3 3.1 0 1.4.5 2.5 1.6 3.1 1 .6 2.8.9 5.3.9h14.5zm34.6 5.9v12.3H633v-12.3zm32.2-34.4c8.5 0 14.8 2.5 18.8 7.4 3.7 4.5 5.6 10.1 5.6 16.9 0 7.2-2.3 12.9-7 17.2-4.3 3.9-10.1 5.9-17.6 5.9q-11.55 0-18-6.6-6-6-6-17.4c0-6.4 1.9-11.8 5.8-16 4.2-4.9 10.4-7.3 18.4-7.4m.1 9.6c-7.6 0-11.4 4.7-11.4 14.2 0 3.8.6 6.8 1.9 8.8q3.15 5.1 9.6 5.1c7.5 0 11.2-4.7 11.2-14.1.1-9.2-3.7-13.8-11.3-14m33.6-8.9H729c3.8 0 6.8.3 8.9.8s3.9 1.4 5.2 2.7c1.4 1.3 2.4 2.8 2.9 4.7q.9 2.85.9 8.1v4.4h-12.2V664c0-3.3-.6-5.5-1.7-6.7s-3.3-1.8-6.5-1.8H723v36.1h-12.6v-45.9zm88.3 0v45.7q0 3.9-.9 6.9c-.6 2-1.5 3.7-2.6 5.1-1.4 1.8-3.2 3-5.2 3.6s-5 1-8.9 1h-25.2v-9.8h23.5c2.8 0 4.6-.4 5.4-1.3.8-.8 1.3-2.6 1.3-5.2h-11.6c-3.7 0-6.8-.4-9.2-1.2q-3.6-1.2-6.6-3.9c-4.6-4.3-6.9-10.3-6.9-17.9 0-8.7 2.8-15 8.4-19 2-1.4 4.1-2.5 6.4-3.1 2.2-.6 5.1-.9 8.5-.9zm-12.7 9.8h-10.5c-7.3 0-10.9 4.4-10.9 13.2 0 4.3 1 7.5 3 9.8 2 2.2 4.9 3.4 8.6 3.4h9.8z"/></svg>