<svg xmlns="http://www.w3.org/2000/svg" xml:space="preserve" x="0px" y="0px" viewBox="0 0 56.948 10"><path fill="#EC6964" d="M30.776 8.041a4.081 4.081 0 0 1-7.4-3.279l.034-.11.031-.092.029-.08a3.7 3.7 0 0 1 .629-1.108c.837-1.004 2.049-1.274 2.849-1.038 1.09.322.779 1.234.779 1.234l-.027.079c-.294.696-2.197.047-2.665 1.723-.362 1.296.355 2.645 1.645 3.026q.035.011.071.019c1.953.538 3.052-.797 3.408-2.001.36-1.218-.918-2.6-.484-2.913 0 0 2.564 1.58 1.101 4.54"/><path fill="#704665" d="M28.085 4.992a.53.53 0 0 1-.295-.152.305.305 0 0 0-.347-.087c-.95.409-.557 1.083-.694 1.26-.242.409-.574.079-.596.148.044.432.879.524 1.318.369.388-.137.918-.384.916-1.174a.375.375 0 0 0-.302-.364m.637-2.27c-1.134 1.388-.978 2.276-.379 2.092.599-.185 1.293-2.463 2.928-3.324L33.827.146c.487-.604-3.61.746-5.105 2.576"/><g fill="#273648"><path d="M21.244 8.101a.074.074 0 0 0-.103-.013c-.37.277-.732.417-1.074.417-.602 0-1.007-.477-1.399-.939a7 7 0 0 0-.363-.405 1.61 1.61 0 0 0 .692-1.366c-.024-.878-.772-1.564-1.65-1.564h-1.183a.074.074 0 0 0-.074.074v4.831c0 .041.033.074.074.074h.606a.074.074 0 0 0 .074-.074V7.525c0-.041.033-.074.074-.074h.47c.193 0 .454.307.706.604.456.537 1.023 1.205 1.974 1.205.513 0 1.03-.194 1.538-.576a.074.074 0 0 0 .013-.105zm-3.857-1.403h-.47a.074.074 0 0 1-.074-.074V5.059c0-.041.033-.074.074-.074h.445c.446 0 .835.33.877.774a.857.857 0 0 1-.852.939m-1.812 1.768c-.333-.028-.47-.269-.686-.779-.062-.146-.132-.312-.224-.465.486-.291.808-.83.786-1.442-.033-.871-.775-1.549-1.647-1.549h-1.185a.076.076 0 0 0-.075.075v4.829c0 .041.034.075.075.075h.604a.076.076 0 0 0 .075-.075V7.527c0-.041.034-.075.075-.075h.469c.111 0 .195.156.353.529.203.481.507 1.2 1.371 1.24a.075.075 0 0 0 .077-.075v-.605a.075.075 0 0 0-.068-.075m-1.733-1.768h-.469a.076.076 0 0 1-.075-.075V5.061c0-.041.034-.075.075-.075h.444c.445 0 .835.33.877.774a.857.857 0 0 1-.852.938m-1.817-2.45H8.751a.073.073 0 0 0-.073.073v4.816c0 .04.033.073.073.073h3.274c.04 0 .073-.033.073-.073V8.53a.073.073 0 0 0-.073-.073H9.432v-1.35h2.593c.04 0 .073-.033.073-.073v-.609a.073.073 0 0 0-.073-.073H9.432v-1.35h2.593c.04 0 .073-.033.073-.073v-.608a.073.073 0 0 0-.073-.073"/><path d="M21.841 4.28a.077.077 0 0 0-.108.01l-.884 1.075a.077.077 0 0 1-.118 0l-.885-1.075a.076.076 0 0 0-.108-.01l-.463.383a.076.076 0 0 0-.01.108l1.131 1.374a.1.1 0 0 1 .017.049V8.02c0 .053.052.089.102.073q.305-.101.621-.337a.08.08 0 0 0 .031-.062V6.193q0-.027.017-.049l1.13-1.374a.077.077 0 0 0-.01-.108zM8.154 4.232h-.602a.076.076 0 0 0-.076.076v2.045H5.137V4.308a.076.076 0 0 0-.076-.076h-.602a.076.076 0 0 0-.076.076v4.827c0 .042.034.076.076.076h.602a.076.076 0 0 0 .076-.076V7.106h2.339v2.028c0 .042.034.076.076.076h.602a.076.076 0 0 0 .076-.076V4.308a.076.076 0 0 0-.076-.076M3.545 8.183a.076.076 0 0 0-.104-.017A1.73 1.73 0 0 1 .766 6.524a1.73 1.73 0 0 1 1.541-1.513c.405-.04.797.059 1.127.278a.075.075 0 0 0 .103-.017l.355-.488a.076.076 0 0 0-.017-.107 2.46 2.46 0 0 0-1.394-.429A2.494 2.494 0 0 0 0 6.745a2.485 2.485 0 0 0 3.885 2.031.076.076 0 0 0 .017-.107zm53.324.396-.374-.477a.074.074 0 0 0-.103-.013c-.37.277-.731.417-1.074.417-.602 0-1.007-.477-1.399-.939a7 7 0 0 0-.363-.405 1.61 1.61 0 0 0 .692-1.366c-.024-.878-.772-1.564-1.65-1.564h-1.183a.074.074 0 0 0-.074.074v4.831c0 .041.033.074.074.074h.606a.074.074 0 0 0 .074-.074V7.525c0-.041.033-.074.074-.074h.47c.193 0 .454.307.706.604.455.537 1.022 1.205 1.973 1.205.513 0 1.03-.194 1.538-.576a.076.076 0 0 0 .013-.105m-4.231-1.881h-.47a.074.074 0 0 1-.074-.074V5.06c0-.041.033-.074.074-.074h.445c.445 0 .835.33.877.774a.857.857 0 0 1-.852.938m-6.496-1.77v-.605a.075.075 0 0 0-.075-.075H42.51a.075.075 0 0 0-.075.075v.605c0 .041.033.075.075.075h1.402v4.134c0 .041.033.075.075.075h.605a.075.075 0 0 0 .075-.075V5.002h1.402c.04 0 .073-.033.073-.074m-7.88-.68h-1.73a.076.076 0 0 0-.076.076v4.81c0 .042.034.076.076.076h1.73a2.484 2.484 0 0 0 2.481-2.482 2.484 2.484 0 0 0-2.481-2.48m0 4.209h-.976a.076.076 0 0 1-.076-.076V5.079c0-.042.034-.076.076-.076h.976a1.73 1.73 0 0 1 1.727 1.727 1.73 1.73 0 0 1-1.727 1.727m-2.35-4.209h-3.265a.077.077 0 0 0-.077.077v4.808c0 .043.035.077.077.077h3.265a.077.077 0 0 0 .077-.077v-.6a.077.077 0 0 0-.077-.077h-2.588v-1.35h2.588a.077.077 0 0 0 .077-.077v-.6a.077.077 0 0 0-.077-.077h-2.588v-1.35h2.588a.077.077 0 0 0 .077-.077v-.6a.077.077 0 0 0-.077-.077m5.968-.016h-.603a.075.075 0 0 0-.075.075v4.828c0 .042.034.075.075.075h.603a.075.075 0 0 0 .075-.075V4.307a.074.074 0 0 0-.075-.075m6.524.016a2.484 2.484 0 0 0-2.481 2.481 2.484 2.484 0 0 0 2.481 2.481 2.484 2.484 0 0 0 2.481-2.481 2.483 2.483 0 0 0-2.481-2.481m0 4.209c-.952 0-1.727-.775-1.727-1.727s.775-1.727 1.727-1.727 1.727.775 1.727 1.727-.774 1.727-1.727 1.727"/></g></svg>