<svg xmlns="http://www.w3.org/2000/svg" width="620" height="180" fill="none" viewBox="0 0 620 180"><path fill="#474bff" fill-rule="evenodd" d="M0 44.713v90.341L78 180l78-44.946v-90.34L78 0zM23 121.5v-62l55-31.302L132 59.5 78 89.427v29.344l54-29.344V121.5l-54 30.303z" clip-rule="evenodd"/><path fill="#000" d="M244.8 144.304V57.82H221V34.85h47.136v109.454zM328.698 146q-18.39 0-29.981-12.333-11.59-12.333-11.591-31.449V76.782q0-19.116 11.591-31.45Q310.307 33 328.698 33q18.237 0 29.827 12.333t11.591 31.449v25.436q0 19.116-11.591 31.449T328.698 146m0-22.97q8.191 0 13.137-5.55t4.945-15.262V76.782q0-9.712-4.945-15.262t-13.137-5.55q-8.344 0-13.29 5.55t-4.946 15.262v25.436q0 9.712 4.946 15.262t13.29 5.55M426.495 146q-18.39 0-29.981-12.333-11.59-12.333-11.591-31.449V76.782q0-19.116 11.591-31.45Q408.104 33 426.495 33q18.237 0 29.827 12.333t11.591 31.449v25.436q0 19.116-11.591 31.449T426.495 146m0-22.97q8.191 0 13.137-5.55t4.945-15.262V76.782q0-9.712-4.945-15.262t-13.137-5.55q-8.344 0-13.29 5.55t-4.946 15.262v25.436q0 9.712 4.946 15.262t13.29 5.55m81.158-88.18v86.484h23.8v22.97h-47.136V34.85zM581.364 146q-15.609 0-27.354-9.558-11.745-9.712-12.363-24.512h24.108q1.237 4.933 5.564 8.017t10.045 3.083q7.264 0 11.282-4.162 4.018-4.163 4.018-10.946 0-6.474-4.327-10.791t-10.818-4.317q-6.027 0-10.2 3.238-4.173 3.083-6.027 8.17l-20.245-6.32V34.85h66.608v22.507h-45.9v17.42c3.391-2.415 14.476-2.928 20.245-2.928q15.455 0 24.727 10.483T620 109.618q0 16.957-10.509 26.67Q599.136 146 581.364 146"/></svg>