<svg xmlns="http://www.w3.org/2000/svg" width="360" height="156" fill="none" viewBox="0 0 360 156"><path fill="url(#a)" fill-rule="evenodd" d="M51.348 135.653a8.87 8.87 0 0 0 0-12.541l-9.499-9.498a13.13 13.13 0 0 0-9.376-3.857 13.13 13.13 0 0 0-9.377 3.857l-9.499 9.498a8.868 8.868 0 0 0 12.541 12.541l3.506-3.506a4 4 0 0 1 5.657 0l3.506 3.506a8.87 8.87 0 0 0 12.54 0" clip-rule="evenodd"/><path fill="url(#b)" d="M54.146 121.664a8.868 8.868 0 1 1 12.54-12.541l11.066 11.066a8.868 8.868 0 1 1-12.54 12.541z"/><path fill="url(#c)" d="M55.212 99.868a8.867 8.867 0 0 1-8.868 8.867 8.867 8.867 0 1 1 8.868-8.867"/><path fill="#03003D" d="m103.308 98.667.733 1.2c.333.533.467 1.066.267 1.733l-8.2 30.533c-.334 1.334.333 2.267 1.733 2.267h6.8c1.133 0 1.867-.533 2.2-1.667l2.2-7.466c.2-.8.733-1.134 1.467-1.134h13.667c.8 0 1.333.334 1.533 1.134l2 7.4c.334 1.2 1.067 1.733 2.201 1.733h7.4c1.4 0 2.133-.933 1.733-2.267l-9.333-33.8c-.334-1.2-1.067-1.666-2.201-1.666h-22.6c-1.6 0-2.334.866-1.6 2m16.934 5.533 3.266 12.067c.267.866-.2 1.466-1.133 1.466h-9.667c-.933 0-1.4-.666-1.133-1.533l3.533-12c.2-.8.733-1.133 1.467-1.133h2.133c.8 0 1.333.333 1.534 1.133m26.804-5.533.8 1.266c.333.6.466 1 .466 1.6V132.4c0 1.267.734 2 2 2h8.601c1.266 0 2-.733 2-2V98.667c0-1.267-.734-2-2-2h-10.267c-1.6 0-2.334.866-1.6 2m22.877 33.6v2.333c0 1.267.733 2 2 2h51.735c1.267 0 2-.733 2-2v-2.333c0-1.267-.733-2-2-2h-18.201c-.867 0-1.333-.467-1.333-1.334V101.2c0-.867.466-1.333 1.333-1.333h16.934c1.267 0 2-.734 2-2v-2.334c0-1.266-.733-2-2-2h-49.202c-1.266 0-2 .734-2 2v2.334c0 1.266.734 2 2 2h16.934c.867 0 1.334.466 1.334 1.333v27.733c0 .867-.467 1.334-1.334 1.334h-18.2c-1.267 0-2 .733-2 2m62.53-11.4v2.333c0 1.267.733 2 2 2h51.735c1.267 0 2-.733 2-2v-2.333c0-1.267-.733-2-2-2h-2.933c-.867 0-1.333-.467-1.333-1.334V94.267c0-1.267-.734-2-2.001-2h-40.734c-1.6 0-2.2 1.066-1.334 2.4l.534.866c.333.6.466 1 .466 1.6v20.4c0 .867-.466 1.334-1.333 1.334h-3.067c-1.267 0-2 .733-2 2m19.934 6.266h-9.534c-1.066 0-1.8.467-2.4 1.334l-5.2 8.133c-.867 1.333-.267 2.4 1.333 2.4h9.534c1.067 0 1.8-.467 2.4-1.333l5.2-8.134c.867-1.333.267-2.4-1.333-2.4m25.401 0h-9.534c-1.6 0-2.2 1.067-1.333 2.4l5.267 8.134c.6.866 1.333 1.333 2.4 1.333h9.467c1.6 0 2.2-1.067 1.333-2.4l-5.2-8.133c-.6-.867-1.333-1.334-2.4-1.334M252.854 98.6h15.067c.867 0 1.333.4 1.333 1.133 0 .734-.466 1.2-1.333 1.2h-15.067c-.867 0-1.334-.466-1.334-1.2 0-.733.467-1.133 1.334-1.133m0 18.2h15.067c.867 0 1.333.4 1.333 1 0 .667-.466 1.067-1.333 1.067h-15.067c-.867 0-1.334-.4-1.334-1.067s.467-1 1.334-1m0-6h15.067c.867 0 1.333.4 1.333 1 0 .667-.466 1.067-1.333 1.067h-15.067c-.867 0-1.334-.4-1.334-1.067s.467-1 1.334-1m0-5.933h15.067c.867 0 1.333.4 1.333 1s-.466 1-1.333 1h-15.067c-.867 0-1.334-.4-1.334-1s.467-1 1.334-1m54.13-13.4-11.2 2.333c-1.134.267-1.801 1-1.801 2.2v3.533c0 1.4.867 2.067 2.201 1.8l1.4-.266c.866-.2 1.466.2 1.466 1.133v15.933c0 1.267.734 2 2 2h6.067q1.1 0 1.6-.4c.6-.466.734-.866 1.4-.866h2.8c.867 0 1.334.466 1.334 1.266 0 .867-.6 1.267-1.4 1.267h-16.867c-1.267 0-2.001.733-2.001 2v2.333c0 1.267.734 2 2.001 2h4.4c1.2 0 1.533.867.733 1.667l-6 6c-1.267 1.267-.734 2.467 1 2.467h7.8c1 0 1.734-.267 2.467-1l6.2-6.267c.8-.867 1.6-.533 1.6.667l.067 5.733c0 1.333.733 2 2 2h8.667c1.267 0 2-.733 2-2v-5.533c0-1.2.867-1.467 1.667-.667l6 6.067c.733.733 1.467 1 2.467 1h7.8c1.733 0 2.267-1.2 1-2.467l-6-6c-.8-.8-.467-1.667.733-1.667h4.6c1.267 0 2-.733 2-2V123.4c0-1.267-.733-2-2-2h-16.934c-.866 0-1.4-.4-1.333-1.267 0-.866.533-1.266 1.333-1.266h14.401c1.267 0 2-.734 2-2V115.8c0-1.267-.733-2-2-2h-10.6c-.867 0-1.334-.267-1.334-.667s.467-.6 1.334-.6h10.6c1.267 0 2-.733 2-2v-1.066c0-1.267-.733-2-2-2h-10.6c-.867 0-1.334-.267-1.334-.667 0-.467.467-.6 1.334-.6h10.6c1.267 0 2-.733 2-2v-1.067c0-1.266-.733-2-2-2h-10.6c-.867 0-1.334-.266-1.334-.666s.467-.6 1.334-.6h10.6c1.267 0 2-.734 2-2V96.8c0-1.267-.733-2-2-2h-10.6c-.867 0-1.334-.467-1.334-1.333v-.6c0-1.2-.733-1.867-2-1.867h-7.2c-1.8 0-2.267 1.2-1 2.467h.066v.666c0 .467-.533.667-1.333.667h-8.734c-.866 0-1.333-.467-1.333-1.333v-.6c0-1.134-.867-1.667-2.2-1.4m3.467 21.066h8.8c.867 0 1.333.267 1.333.6 0 .4-.466.667-1.333.667h-8.734c-.866 0-1.4-.2-1.333-.667 0-.466.467-.6 1.267-.6m.066-6.333h8.734c.8 0 1.267.2 1.333.6 0 .467-.533.667-1.4.667h-8.667c-.866 0-1.333-.267-1.333-.667 0-.467.467-.6 1.333-.6m0-6.333h8.734c.8 0 1.267.2 1.333.6 0 .466-.533.666-1.4.666h-8.667c-.866 0-1.333-.266-1.333-.666s.467-.6 1.333-.6"/><rect width="178" height="58" x="91" y="1" fill="#F7F8FA" stroke="url(#d)" stroke-width="2" rx="29"/><g filter="url(#e)"><rect width="160" height="40" x="100" y="10" fill="#FEFEFE" rx="20"/></g><path fill="#595866" d="m126 38 .144-3.768h-4.008L120.96 38h-4.584l6.168-17.28h7.92L130.56 38zm-.984-13.08-1.896 6.096h3.144l.264-6.096zm15.183-4.2L137.175 38h-4.344l3.048-17.28zm8.07 12.264h-7.176l.528-3.024h7.176zm12.195-12.264q2.736 0 3.888 1.2.864.912.864 2.304 0 .48-.096 1.008l-.216 1.152q-.264 1.368-1.032 2.136-.744.768-1.32.768l-.024.192q.672 0 1.368.744a2.48 2.48 0 0 1 .696 1.752 4.2 4.2 0 0 1-.096.864l-.144.744q-.384 2.064-1.848 3.24Q161.064 38 158.472 38h-8.016l3.048-17.28zm-2.16 10.224h-2.28l-.576 3.312h2.376q1.104 0 1.752-.504.648-.528.648-1.272 0-1.536-1.92-1.536m.648-6.48h-1.8l-.624 3.576h1.776q2.304 0 2.304-2.016 0-.696-.432-1.128-.408-.432-1.224-.432m16.613-3.912q5.784 0 5.784 4.728 0 .792-.168 1.704l-.84 4.8q-.576 3.336-2.496 4.944t-5.4 1.608-4.848-1.608q-.936-1.104-.936-3.048 0-.864.192-1.896l.84-4.8q1.128-6.432 7.872-6.432m-2.472 14.064q1.2 0 1.92-.624t1.008-2.304l.816-4.608a6 6 0 0 0 .072-.864q0-1.944-1.968-1.944-2.472.048-2.952 2.808l-.816 4.608q-.096.6-.096 1.248 0 1.68 2.016 1.68m26.069-10.152h-5.904L190.882 38h-4.344l2.376-13.536h-5.928l.672-3.744h16.176zm17.202 13.872q-3.432 0-4.752-1.488-.912-1.056-.912-2.952 0-.816.168-1.752l.984-5.52q1.08-6.072 7.8-6.072 2.784 0 4.224 1.2 1.44 1.176 1.44 3.24 0 .96-.288 1.92-.264.936-.528 1.392l-.264.48h-4.248q.792-.912.792-2.592 0-.888-.456-1.392-.456-.528-1.344-.528-2.424 0-2.88 2.688l-.84 4.848q-.12.624-.12 1.224 0 1.584 1.896 1.584 2.28 0 2.736-2.568h4.32l-.12.696q-.96 5.592-7.608 5.592m25.835-17.616L239.175 38h-4.344l-3.024-9.456L230.175 38h-4.344l3.048-17.28h4.464l2.976 8.832 1.56-8.832zM202 30s.901 2.658 2.121 3.879C205.342 35.099 208 36 208 36s-2.658.9-3.879 2.121C202.901 39.342 202 42 202 42s-.901-2.658-2.121-3.879C198.658 36.901 196 36 196 36s2.658-.9 3.879-2.121C201.099 32.658 202 30 202 30"/><defs><linearGradient id="a" x1="53.9448" x2="27.6912" y1="138.25" y2="98.6819" gradientUnits="userSpaceOnUse"><stop stop-color="#EE9AE5"/><stop offset="1" stop-color="#5961F9"/></linearGradient><linearGradient id="b" x1="47.8754" x2="77.8279" y1="115.393" y2="106.224" gradientUnits="userSpaceOnUse"><stop stop-color="#EE9AE5"/><stop offset="1" stop-color="#5961F9"/></linearGradient><linearGradient id="c" x1="37.4768" x2="55.212" y1="91" y2="108.735" gradientUnits="userSpaceOnUse"><stop stop-color="#EE9AE5"/><stop offset="1" stop-color="#5961F9"/></linearGradient><linearGradient id="d" x1="90" x2="274.172" y1="0" y2="41.4724" gradientUnits="userSpaceOnUse"><stop stop-color="#EE9AE5" stop-opacity="0.15"/><stop offset="1" stop-color="#5961F9" stop-opacity="0.15"/></linearGradient><filter id="e" width="164" height="45" x="98" y="10" color-interpolation-filters="sRGB" filterUnits="userSpaceOnUse"><feFlood flood-opacity="0" result="BackgroundImageFix"/><feColorMatrix in="SourceAlpha" result="hardAlpha" values="0 0 0 0 0 0 0 0 0 0 0 0 0 0 0 0 0 0 127 0"/><feOffset dy="3"/><feGaussianBlur stdDeviation="1"/><feComposite in2="hardAlpha" operator="out"/><feColorMatrix values="0 0 0 0 0.913725 0 0 0 0 0.921569 0 0 0 0 0.941176 0 0 0 1 0"/><feBlend in2="BackgroundImageFix" result="effect1_dropShadow_418_15"/><feBlend in="SourceGraphic" in2="effect1_dropShadow_418_15" result="shape"/></filter></defs></svg>