<svg xmlns="http://www.w3.org/2000/svg" width="200" height="200" class="icon" viewBox="0 0 1024 1024"><path fill="#34495E" d="M546.56 704H128c-19.2 0-32-12.8-32-32V256h704v194.56c10.928 1.552 21.648 3.76 32 6.832V128c0-35.2-28.8-64-64-64H128c-35.2 0-64 28.8-64 64v544c0 35.2 28.8 64 64 64h425.392a222 222 0 0 1-6.848-32zM96 128c0-19.2 12.8-32 32-32h640c19.2 0 32 12.8 32 32v96H96z"/><path fill="#00B42A" d="M384 160a32 32 0 1 0 64 0 32 32 0 1 0-64 0"/><path fill="#F7BA1E" d="M256 160a32 32 0 1 0 64 0 32 32 0 1 0-64 0"/><path fill="#F53F3F" d="M128 160a32 32 0 1 0 64 0 32 32 0 1 0-64 0"/><path fill="#006AFF" d="m382.848 658.928 99.376-370.88 30.912 8.272-99.36 370.88zM318.368 319.2 160 477.6 318.4 636l22.64-22.624L205.248 477.6l135.776-135.776zM768 480a193 193 0 0 0-38.24 3.84l6.24-6.24-158.4-158.4-22.64 22.624L690.752 477.6 554.976 613.376 577.632 636l2.208-2.224a190.77 190.77 0 0 0 30.928 148.08L494.096 898.512c-10.24 10.24-10.24 26.896 0 37.136l27.76 27.76c5.12 5.12 11.84 7.68 18.56 7.68s13.456-2.56 18.56-7.68l120.992-120.96A190.56 190.56 0 0 0 768 864c105.872 0 192-86.128 192-192s-86.128-192-192-192M608.88 673.136c0-88.224 71.776-160 160-160 10.656 0 21.04 1.152 31.12 3.152V672c0 19.2-12.8 32-32 32H612a160 160 0 0 1-3.12-30.864M540.416 936.72l-19.632-19.632L631.12 806.752a195 195 0 0 0 20.752 18.528zM768.88 833.136c-65.92 0-122.576-40.096-147.056-97.136H768c35.2 0 64-28.8 64-64V526.224c56.896 24.544 96.88 81.12 96.88 146.912 0 88.224-71.776 160-160 160"/><path fill="#34495E" d="M864.576 672c0 52.928-43.072 96-96 96v32a128 128 0 0 0 128-128z"/></svg>