<svg xmlns="http://www.w3.org/2000/svg" xml:space="preserve" x="0px" y="0px" viewBox="0 0 512 512"><path d="M464 32H48C21.5 32 0 53.5 0 80v352c0 26.5 21.5 48 48 48h416c26.5 0 48-21.5 48-48V80c0-26.5-21.5-48-48-48" style="fill:#002240"/><circle cx="192" cy="128" r="32" style="fill:#ffbd2e"/><circle cx="288" cy="128" r="32" style="fill:#27c93f"/><circle cx="96" cy="128" r="32" style="fill:#ff5f56"/><path d="M72.2 255.2h245.1c4.4 0 8.2-1.8 8.2-4V243c0-2.2-3.7-4-8.2-4H72.2c-4.4 0-8.2 1.8-8.2 4v8.1c0 2.2 3.7 4.1 8.2 4.1m0 48.2h147c4.4 0 8.2-1.8 8.2-4v-8.1c0-2.2-3.7-4-8.2-4h-147c-4.4 0-8.2 1.8-8.2 4v8.1c0 2.2 3.7 4 8.2 4m0 96.6h81.7c4.4 0 8.2-1.8 8.2-4v-8.1c0-2.2-3.7-4-8.2-4H72.2c-4.4 0-8.2 1.8-8.2 4v8.1c0 2.2 3.7 4 8.2 4m0-48.3h212.4c4.4 0 8.2-1.8 8.2-4v-8.1c0-2.2-3.7-4-8.2-4H72.2c-4.4 0-8.2 1.8-8.2 4v8.1c0 2.2 3.7 4 8.2 4" style="fill:#fff"/></svg>