<svg xmlns="http://www.w3.org/2000/svg" width="147" height="30" viewBox="0 0 147 30"><path fill="#F33" d="M15.047 30C6.737 30 0 23.284 0 15S6.737 0 15.047 0s15.047 6.716 15.047 15-6.736 15-15.047 15M24.3 15.111c.028-2.353-1.332-4.866-3.121-6.667-3.121-3.088-7.558-2.923-10.924-1.333 2.898.242 4.58 1.214 6.242 2.889 1.696 1.673 2.229 2.95 2.23 5.111h-2.899l5.574 6.222 5.573-6.222zM5.796 14.89c-.029 2.353 1.332 4.866 3.12 6.667 3.122 3.088 7.558 2.923 10.924 1.333-2.898-.242-4.579-1.214-6.242-2.889-1.695-1.673-2.229-2.95-2.229-5.111h2.898L8.694 8.667l-5.573 6.222h2.675z"/><path fill="#282828" d="M52.587 21.09q-1.197 1.37-2.954 2.17t-4.05.8q-2.087 0-3.857-.685a9.1 9.1 0 0 1-3.068-1.942 9 9 0 0 1-2.038-3.008q-.738-1.752-.738-3.859 0-2.157.751-3.91a8.7 8.7 0 0 1 2.075-2.982 9.2 9.2 0 0 1 3.107-1.89q1.782-.66 3.845-.66 1.911 0 3.756.672 1.846.672 2.992 1.967l-2.953 2.945a3.65 3.65 0 0 0-1.605-1.244 5.3 5.3 0 0 0-2.037-.406q-1.146 0-2.1.419a4.9 4.9 0 0 0-1.643 1.155A5.3 5.3 0 0 0 41 12.37a6.1 6.1 0 0 0-.382 2.196q0 1.218.382 2.234a5.2 5.2 0 0 0 1.057 1.739q.675.723 1.617 1.13a5.2 5.2 0 0 0 2.063.406q1.297 0 2.266-.508a4.4 4.4 0 0 0 1.553-1.32l3.03 2.843zm13.662-3.884q0 1.548-.56 2.805a6.3 6.3 0 0 1-1.528 2.132 7 7 0 0 1-2.241 1.359 7.6 7.6 0 0 1-2.725.482q-1.425 0-2.712-.482a6.8 6.8 0 0 1-2.24-1.359 6.4 6.4 0 0 1-1.516-2.132q-.56-1.257-.56-2.805t.56-2.792a6.3 6.3 0 0 1 1.515-2.107 6.6 6.6 0 0 1 2.241-1.32 8 8 0 0 1 2.712-.457q1.452 0 2.725.457a6.8 6.8 0 0 1 2.24 1.32 6.2 6.2 0 0 1 1.529 2.107q.56 1.245.56 2.792m-4.023 0q0-.61-.204-1.193a3.2 3.2 0 0 0-.586-1.028 3 3 0 0 0-.942-.723q-.56-.28-1.299-.28t-1.298.28a2.8 2.8 0 0 0-.93.723 3.1 3.1 0 0 0-.56 1.028 3.8 3.8 0 0 0 0 2.386q.19.584.573 1.054.382.469.942.749.56.279 1.299.279t1.298-.28q.56-.279.943-.748.381-.47.573-1.054.19-.584.19-1.193zm13.891 6.372v-6.905q0-.533-.09-1.015a2.8 2.8 0 0 0-.292-.85 1.5 1.5 0 0 0-.573-.585q-.369-.215-.93-.215-.56 0-.98.215-.42.216-.7.597a2.7 2.7 0 0 0-.42.876 3.7 3.7 0 0 0-.14 1.028v6.854H67.79V10.936h4.049v1.752h.05q.23-.407.6-.8.368-.393.865-.673a5.4 5.4 0 0 1 1.082-.457q.586-.177 1.248-.177 1.273 0 2.165.457a4.1 4.1 0 0 1 1.438 1.18 4.6 4.6 0 0 1 .79 1.663q.242.939.242 1.878v7.819zm14.095 0h-4.507l-4.991-12.642h4.609l2.674 8.2h.076l2.674-8.2h4.456l-4.99 12.642zm14.223-7.768q0-.99-.624-1.7-.624-.712-1.872-.712-.61 0-1.12.19a2.9 2.9 0 0 0-.892.521 2.6 2.6 0 0 0-.61.774 2.3 2.3 0 0 0-.255.927zm3.845 1.6v.507q0 .255-.026.482h-9.192q.051.534.318.965t.688.749a3.36 3.36 0 0 0 2.024.672q.993 0 1.68-.368a3.3 3.3 0 0 0 1.121-.952l2.903 1.828a5.87 5.87 0 0 1-2.355 1.993q-1.465.698-3.4.698-1.425 0-2.7-.444a6.6 6.6 0 0 1-2.227-1.295 6 6 0 0 1-1.503-2.094q-.547-1.244-.547-2.843 0-1.55.535-2.805a6.3 6.3 0 0 1 1.451-2.133 6.5 6.5 0 0 1 2.164-1.358 7.4 7.4 0 0 1 2.7-.482q1.4 0 2.572.47a5.6 5.6 0 0 1 2.011 1.358q.84.888 1.312 2.157.47 1.27.47 2.894zm9.715-3.072a3.3 3.3 0 0 0-.547-.102 6 6 0 0 0-.522-.025q-.84 0-1.414.304a2.9 2.9 0 0 0-.916.737q-.344.43-.497.939a3.1 3.1 0 0 0-.153.888v6.499h-4.176V10.936h4.023v1.828h.051a4.1 4.1 0 0 1 1.376-1.574q.89-.61 2.062-.61.255.001.497.026t.394.076zm4.979-.28v4.824q0 .888.344 1.332t1.235.444q.305 0 .65-.05.343-.051.572-.153l.051 3.047q-.434.152-1.095.266a8 8 0 0 1-1.324.114q-1.273 0-2.14-.317-.864-.318-1.387-.914a3.6 3.6 0 0 1-.751-1.421 7 7 0 0 1-.23-1.84v-5.332l-.697.289v-3.462l.672.051V7.611h4.1v3.325h2.98v3.122zM131.34 6.9q0 .483-.191.901a2.3 2.3 0 0 1-.51.724 2.5 2.5 0 0 1-1.693.66q-1.019 0-1.706-.673a2.18 2.18 0 0 1-.688-1.612q0-.457.179-.876a2.1 2.1 0 0 1 .509-.723q.33-.305.764-.495.432-.19.942-.19a2.5 2.5 0 0 1 1.693.66q.319.304.51.723.19.42.19.901zm-4.482 16.678V10.936h4.176v12.642zm19.825-6.372q0 1.548-.56 2.805a6.3 6.3 0 0 1-1.528 2.132 7 7 0 0 1-2.241 1.359 7.6 7.6 0 0 1-2.725.482 7.7 7.7 0 0 1-2.712-.482 6.8 6.8 0 0 1-2.24-1.359 6.4 6.4 0 0 1-1.516-2.132q-.56-1.257-.56-2.805t.56-2.792a6.3 6.3 0 0 1 1.515-2.107 6.6 6.6 0 0 1 2.241-1.32 8 8 0 0 1 2.712-.457q1.452 0 2.725.457a6.8 6.8 0 0 1 2.24 1.32 6.2 6.2 0 0 1 1.528 2.107q.56 1.245.56 2.792zm-4.024 0q0-.61-.203-1.193a3.2 3.2 0 0 0-.586-1.028 3 3 0 0 0-.942-.723q-.561-.28-1.299-.28t-1.299.28a2.8 2.8 0 0 0-.93.723 3.1 3.1 0 0 0-.56 1.028 3.8 3.8 0 0 0 0 2.386q.192.584.574 1.054.381.469.942.749.56.279 1.298.279.74 0 1.3-.28.56-.279.941-.748.382-.47.573-1.054t.191-1.193"/></svg>