<svg xmlns="http://www.w3.org/2000/svg" width="64" height="64" class="icon" viewBox="0 0 1024 1024"><path fill="#1296db" d="M115.742 297.495c70.423-56.83 144.211-103.175 229.133-131.913C398.34 147.587 452.71 134.9 507.987 127.91c60.973-7.637 122.463-9.32 184.083-3.106 47.51 4.79 93.984 12.816 138.904 28.738 57.478 20.325 104.21 55.148 137.48 106.282 10.486 16.052 18.642 34.046 23.302 52.429-4.272 4.272-8.415 3.107-12.298 3.107-59.16 0-118.321-.13-177.481.259-9.71.129-15.276-2.848-20.584-11.133-9.968-15.664-23.69-28.869-38.188-40.26-40.908-32.235-85.958-55.148-137.61-67.187-39.354-9.191-79.226-13.334-118.838-12.946-45.18.389-90.748 4.143-135.41 14.758-47.638 11.522-94.371 26.28-138.515 47.769-26.797 13.074-54.5 25.243-78.578 43.626-4.531 3.495-9.32 7.637-18.512 7.249m-23.56 347.584c-34.047 5.825-35.083 4.919-34.565-27.574.13-8.026 0-16.052.647-23.95 1.942-22.783-3.624-42.848-23.042-57.865 14.24-12.945 34.952-12.557 42.46-31.716-12.039-4.013-23.949-2.59-35.47-2.59-10.486.13-16.311-3.883-16.311-14.627-.13-11.91 8.026-11.78 16.57-11.651 13.463.13 27.056 0 40.648 0 7.12 0 13.464-1.942 13.205-10.616-.26-8.802-6.343-9.838-13.593-9.45-9.062.389-17.994 0-27.056.26-8.932.258-16.829-2.072-17.347-12.17-.647-11.262 8.803-12.039 16.7-12.815 9.45-.777 19.03-.26 28.61-.389 6.084-.13 12.168-.518 14.628-7.896-3.107-6.861-9.45-6.473-15.276-6.603-11.521-.258-23.043-.388-34.564-.258-9.968.129-17.735-4.143-17.735-14.11 0-9.71 7.896-14.888 17.346-15.406 10.486-.647 21.101-.647 31.587-.13 10.357.389 18.124-2.2 18.9-13.98.777-10.357 8.286-9.839 15.276-9.839 7.897 0 17.476-1.294 18.641 9.968 1.295 12.169 8.415 14.24 18.771 13.722 8.544-.388 17.088-.13 25.503.389 7.12.388 12.298 3.754 13.592 11.52 1.424 8.674-3.624 13.076-10.486 16.053-8.155 3.495-16.829 1.813-25.243 1.942-7.897.13-16.052-1.036-22.654 5.049 1.294 8.673 7.896 7.896 13.722 8.414 8.026.777 15.922 1.424 23.949 2.2 7.896.648 11.78 4.661 11.003 12.817-.647 7.767-4.79 11.78-12.557 11.91-8.544.129-17.088-.26-25.502.776-4.92.518-10.227 3.237-9.839 9.45.389 6.473 4.66 10.098 11.133 9.58 11.004-.906 21.749 3.107 32.882.518 8.802-2.071 13.333 2.718 13.851 11.262.518 8.156-2.718 13.722-11.78 13.981-13.981.518-28.092 1.165-42.073 1.036-7.896-.13-13.463 2.2-16.958 9.45-6.343 13.204-19.807 20.454-29.645 31.457 8.932 8.156 17.606 5.179 25.632 5.567 9.45.388 19.03.259 28.61.259 6.99 0 12.686-.389 12.038-10.486-.776-12.557 10.227-13.204 18.771-14.758s15.535 2.33 16.182 11.522c1.165 14.37 10.486 15.664 21.1 14.628 22.526-2.33 45.05-.13 67.576-.518 13.333-.259 20.324 5.178 19.288 19.807-1.035 13.98-.13 28.091-.13 42.072-.129 26.15-7.896 35.47-33.657 37.8-10.356.907-20.972-.647-31.457-1.294-12.428-.777-14.24-10.615-13.981-19.418.259-9.839 9.45-6.343 15.405-6.99 1.941-.26 4.013 0 5.955 0 22.266.129 29.644-10.357 22.395-31.587-1.812-5.437-5.825-6.602-10.486-6.602-16.57-.13-33.01.13-49.58 0-9.062 0-12.299 4.272-12.17 13.074.39 18.512-.258 37.154.26 55.666.388 10.874-1.813 17.217-14.758 15.922-11.133-1.035-21.36-1.165-20.583-16.829.777-16.958-.26-34.046.518-51.134.517-12.169-3.625-17.735-16.182-17.217-12.04.518-24.079.13-36.118 0-8.544 0-12.686 3.495-12.427 12.686.13 15.923-.13 32.364-.13 49.71m-6.991 74.047c34.693 45.438 76.636 76.119 125.7 96.573 37.153 15.534 76.636 22.654 116.896 24.466 59.937 2.59 119.098-3.106 176.834-19.159 45.438-12.557 88.029-31.716 126.865-59.03 10.227-7.12 21.1-13.334 29.904-22.396 3.236-3.366 7.508-4.92 12.298-4.79 37.024.13 74.177.13 111.2.259 2.978 0 5.956.388 8.545 3.495-4.143 9.839-13.205 15.664-20.972 22.396-74.824 65.503-163.63 98.255-261.108 111.071-34.306 4.531-68.481 8.156-103.046 8.026-67.574-.259-133.596-10.486-195.863-37.541-24.985-10.875-47.38-26.668-68.481-44.92-19.289-16.7-33.917-36.377-49.452-55.795-4.013-5.308-8.285-10.875-9.32-22.655m686.752-265.38c-4.013 6.214-2.718 11.392-2.718 16.182-.13 59.678-.26 119.356.13 179.034.129 10.615-1.684 18.124-13.593 18.383-12.816.388-14.37-9.062-14.37-18.512 0-48.675.389-97.22.389-145.895 0-39.613-.26-79.096-.518-118.709 0-3.495-.389-7.12.259-10.486 1.424-7.12 3.495-14.11 13.074-13.333 8.674.647 14.11 5.566 14.37 14.369.388 10.486.13 21.1.13 31.587 0 3.495-.26 9.45 2.718 9.32 17.217-.776 22.654 13.852 33.01 24.985 7.897-14.628 20.584-12.816 33.14-12.816 50.1.388 100.069-.777 150.167.777 14.37.518 15.794 7.767 16.182 19.159.388 13.593-7.767 14.24-17.606 14.11-33.528-.388-67.186-.647-100.715-1.165-9.968-.13-14.758 4.402-14.758 14.37 0 42.072 0 84.274-.13 126.347 0 11.78 6.215 15.275 17.348 15.146 30.033-.518 60.196.388 90.229-.518 12.945-.388 14.758 6.084 15.535 16.311.776 10.874-4.402 14.11-14.111 14.628-44.144 1.813-88.158 1.813-132.302-.259-10.356-.517-10.874-7.637-11.133-14.498-.518-15.017-.259-30.034-.259-45.18.26-35.082.648-70.164.777-105.246 0-4.53-.518-9.062-1.295-13.463-1.035-5.178-5.178-7.638-9.838-7.638-4.92 0-10.227.518-12.04 6.602-1.164 3.755-2.2 7.638-3.753 11.263-2.46 5.696-5.955 10.615-13.464 9.838-7.12-.776-10.226-5.307-11.91-11.65-1.812-8.285-3.883-17.088-12.945-23.043"/><path fill="#1296db" d="M266.814 407.401c-8.414-3.365-16.958-1.553-25.243-1.553-8.932 0-8.156 6.99-8.156 12.945.13 34.564-.906 69.129.648 103.693.776 16.958-10.098 16.052-19.936 17.217-11.263 1.295-14.24-5.566-14.24-15.923-.26-42.46-1.165-84.921-1.424-127.382-.13-18.383 2.46-20.195 21.1-20.842 23.95-.777 48.028 1.941 71.848-2.46 10.356-1.942 17.994 4.66 25.502 10.745 5.178 4.272 2.719 9.061.259 13.592-5.178 9.192-11.392 17.606-18.77 25.244-9.321 9.709-9.063 18.253 1.294 28.091 10.874 10.486 23.043 21.23 21.23 39.225-1.812 18.253-11.003 28.739-28.739 33.787-12.816 3.625-25.89 2.201-38.836 1.942-10.744-.259-14.757-10.486-12.168-27.574 8.673-2.848 17.605-.906 26.538-1.035 6.86-.13 13.204-1.165 16.7-7.767 4.012-7.38.905-13.723-3.626-19.289-5.307-6.602-10.356-13.334-18.123-17.606-9.58-5.178-14.24-11.521-4.531-22.266 5.049-5.566 11.004-12.945 8.673-22.784m262.403-40c3.496 6.99 2.33 13.074 2.33 18.9 0 76.118-.258 152.366 0 228.485.13 41.296 1.813 44.532-50.486 51.911-5.438.777-11.004 0-16.57-.13-17.477-.258-26.28-9.45-25.503-26.926.388-8.285 6.214-10.615 13.593-10.615 9.45.13 19.03-.388 28.48.518 11.391 1.165 14.498-3.236 14.369-14.499-.388-74.695-.13-149.39-.259-224.084 0-24.985-.13-24.985 24.337-24.467 3.237.388 6.214.647 9.71.906m70.423 74.564c6.085-.906 10.745 1.036 13.593 6.862 18.253 39.353 42.072 76.377 52.17 119.356 3.366 14.628-11.004 31.198-25.762 28.35-6.99-1.424-7.767-8.414-9.32-14.11-8.026-28.998-19.936-56.442-31.846-83.886-4.79-11.004-10.227-21.619-15.405-32.364-7.767-16.31-2.46-24.078 16.57-24.208M446.496 457.63c-3.495 23.173-10.485 46.215-19.677 68.352-8.285 19.806-18.77 38.707-28.997 57.736-2.848 5.437-6.732 13.205-14.37 10.745-8.932-2.977-16.44-9.45-22.784-16.44-1.682-1.813.389-4.66 1.813-6.732 23.949-35.341 37.412-75.083 46.085-116.38 2.201-10.485 8.027-13.85 16.959-11.262 8.026 2.201 20.971-1.941 20.971 13.981m286.611-10.356c-.777 23.172-4.53 42.72-10.227 61.879-1.683 5.825-4.53 11.521-12.686 8.932-7.25-2.33-15.276-4.401-13.463-14.628 4.142-23.043 8.802-45.827 13.333-68.87 1.036-5.178 4.66-7.508 9.58-7.896 5.825-.647 9.709 2.071 11.004 7.767 1.424 5.178 2.07 10.615 2.46 12.816m179.553-26.02c-6.473.906-11.78-2.719-15.794-8.285-5.307-7.25-10.356-14.758-15.534-22.007-5.567-7.768-10.227-14.758.647-22.784 9.839-7.25 17.347-8.285 24.855 2.718 6.214 9.062 13.593 17.218 19.548 26.409 8.673 13.075 2.718 23.56-13.722 23.949"/></svg>