<svg xmlns="http://www.w3.org/2000/svg" width="1600.000000pt" height="1280.000000pt" version="1.0" viewBox="0 0 1500.000000 1500.000000"><path d="m799.5 369.2-10.9 5.2-17.3.1-17.2.1-8.5 4.3c-9.1 4.5-14.4 9-17.1 14.8-2 4.2-2.9 3.9-1.4-.6 1.6-4.6.3-9.5-3.2-12.5-1.7-1.4-3.4-2.6-3.7-2.6-.4 0-2.3 2.8-4.2 6.1-2.8 4.9-16.8 19.9-18.6 19.9-.2 0-.4-1.3-.4-2.8 0-5.6-2-5.6-7.2-.1-2.7 2.8-6.5 5.7-8.4 6.5-5.7 2.4-12.9 8.1-15.9 12.6-1.6 2.4-4.7 6.1-7 8.3-5.3 5-5.9 6.2-8.4 16.3-1.1 4.5-3.6 11.2-5.5 14.9-1.8 3.8-4.7 9.7-6.2 13.3-1.6 3.6-3.1 6.7-3.5 7-2.9 2.3-12.9 25.2-12.9 29.6 0 1.1 1.6 4 3.6 6.3l3.7 4.2-1.3 11.8c-1.4 13.5-1.3 13.9 5.6 20.3 6.2 5.8 6.8 7.1 5.4 12.4-1.1 3.8-1 4.6.8 7.6 1.2 1.8 3.2 4.4 4.6 5.7 3.4 3.2 3.3 4.1-.7 4.1-5.4 0-18 8.9-21.2 15-5.9 11.3-7.5 31.5-3.5 44.4 3.9 12.6 11.6 22.9 21.8 29.5 7.7 4.9 23 9.2 33.9 9.4 5.1.1 9.3.4 9.3.6s-1.1 1.7-2.5 3.3c-5.4 6.4-6.9 10.7-7.1 19.9-.2 7.3-.6 9.4-3.2 14.5-4 7.9-6 18-7.3 36.6-.7 10.4-2 19.6-4.1 28.5-2.1 9-2.8 14.3-2.4 16.7.9 4.6 5.7 13.6 10.7 20.4l4 5.3-4.8 6.6c-2.6 3.6-5.4 7.3-6.1 8.3-1.2 1.6-.5 3 5.3 11.8 7.4 11.3 10.9 15.2 13.6 15.2 1.1 0 1.9.1 1.9.2 0 .2-.7 3.9-1.5 8.3s-1.4 12.5-1.5 17.9c0 7.9-.3 10.1-1.6 11-1.4 1.1-1.3 1.6 1.1 4.5 3.5 4 5.1 2.9 3.6-2.5-2.9-10.5.6-45.7 5.4-53.4.3-.6 1.6.2 2.9 1.7 2.2 2.5 2.5 2.6 5.5 1.3 5.5-2.3 5.9-.1 1.2 8.3-2.2 4.1-4.1 7.9-4.1 8.4 0 .9 15.1 12 23.7 17.3 5.1 3.2 5.3 3.5 8.4 12.9 4.1 12.3 7.1 19.2 10.3 23.4 2.1 2.8 2.7 4.9 3.2 11.3.8 12.6 1.2 13.9 5.9 20.3 3.6 4.9 4.5 6.9 4.5 10.3 0 2.8.8 5.1 2.5 7.4 1.4 1.8 2.5 3.9 2.5 4.7 0 .7 1.2 2.4 2.6 3.8 4.3 4 4.7 5.4 2.4 9.8-2 4-3.1 10.3-3.3 20.1l-.2 5.5-5.5.6c-10.6 1.1-17 4.7-17 9.3 0 1.2 1.1 2.8 2.3 3.7 3.5 2.5 18.9 5.6 37.7 7.4 16.6 1.7 17.9 1.7 25.5.1 4.4-1 9.8-2 12-2.2 21.1-2.5 26.4-3.5 31.2-5.9 6.5-3.3 6.1-5-1.6-7-3.1-.9-7.8-2.2-10.6-3-2.7-.8-7.7-1.6-11-1.8l-6-.3-1.7-9.1c-1.9-10.6-4.1-16-9.1-22.5-4.5-5.9-6.4-11.6-4.8-14.7.9-1.6.9-3.5 0-8-1-4.4-1-7.1-.1-11.5l1.2-5.8-4.3-7.1c-3.7-6.4-4.2-7.8-4-12.8.4-9 3.2-20.8 6.8-28.4 3.6-7.5 7.6-12.2 9.5-11 .6.4 3.2 3.9 5.7 7.8 3.4 5.4 4.8 8.8 5.9 14.6.8 4.2 2.1 9.8 3 12.6 1.5 5.2 1.3 8.8-1.7 25.8-1.2 6.6-1.1 6.8 2.1 14 1.8 3.9 4.1 8.1 5 9.2 1 1.1 2 4.4 2.3 7.5.7 7.4 5 20.6 8.3 25.3 2.6 3.9 10.8 8.7 14.7 8.7 4 0 11.6-4.2 14.1-7.9 5.2-7.5 4-18.4-3.6-31.8l-2.9-5.3 2.4-3.2c4.9-6.5 6.7-11.6 7.4-20.1.3-4.5 1-9 1.5-10s4-3.8 7.7-6.2c9.4-6 10.2-7.2 9.4-15.9-.4-5.6-.2-8 1.2-11.1 1.2-2.7 2-7.9 2.4-16.3l.6-12.2 6.4-8.8c5.3-7.3 7.1-9.1 10.1-9.9 3.3-.8 4-.7 7.2 2.1 1.9 1.7 4 4 4.5 5.1 4 7.6 5.9 32.5 2.7 34.3-1.3.7-1.4 1.3-.5 3.1 1.8 3.3 2.7 2.5 4.1-3.8 1.4-6.9.1-22.5-2.6-30.5-1.5-4.2-1.5-5.1-.3-5.5.8-.2 2.9-2 4.7-4 4.3-4.7 4.4-9.2 0-15.2-3.4-4.6-3.3-4-4.1-22.9-.2-4.8 1.9-12.8 6-22.5 4.6-11.1 4.5-12-5.1-41-4.7-14.3-9.5-27.2-10.6-28.7s-2-4-2-5.5c0-1.6-.9-4.7-2-6.8-1.5-2.9-1.7-4.1-.8-4.4.6-.2 5.2-2.4 10-4.8 28-14 47.5-38.3 52.4-65.3 2.1-11.5 1.8-30.8-.6-40.8-4-16.6-12.9-32.1-26.9-46.5-7.3-7.6-9.8-10.9-13.5-18.6-2.5-5.2-4.6-10.3-4.6-11.3s-.6-2.9-1.4-4.1c-2.1-3.1-5.8-18.4-5.4-22 .3-2.7.8-3.2 3.7-3.8 1.8-.4 4.8-2.1 6.5-3.8 2.7-2.7 3.1-3.8 3.1-8.4 0-4-.6-6.3-2.5-9.1-2.8-4.1-10.7-8.5-16.9-9.3-4.6-.6-8.1-3.7-6.6-5.7 5.9-8 7.4-12 7.5-20.2 0-3.3-.3-6.4-.6-6.7-.4-.3-1.6 0-2.8.8-3.9 2.8-5.4 1.9-6.1-3.3-1.7-13.4-2.9-19.6-5.3-28.5-1.4-5.3-3.1-9.7-3.6-9.7-.6 0-2 1.2-3.3 2.7l-2.2 2.8.6-7c.4-5.7.1-8.2-1.9-13.5-1.8-5.2-2.8-6.6-4.7-6.8-1.5-.3-2.1 0-1.6.8.8 1.3-1.3 7-2.6 7-.5 0-.9-.7-.9-1.5 0-2.5-4.1-1.7-12.9 2.5-9.1 4.4-12.1 5-12.1 2.2 0-1-.6-2.6-1.3-3.6-1.3-1.7-1.7-1.7-8.8.9-4.4 1.6-9.8 2.7-13.3 2.8l-5.9.2-1.3-4c-.8-2.1-2.4-5-3.7-6.3-2.2-2.4-6.9-5.2-8.4-5.2-.4.1-5.7 2.4-11.8 5.2m14.5 0c0 1.8-16.9 17.9-23 21.9-5.4 3.6-10 5.4-10 4 0-.4 1.6-2.2 3.5-4.1 4.1-3.9 4.2-4.6 1.5-6-1.7-.9-1.9-.8-1.3.7s.4 1.6-.9.6c-.8-.7-1.8-1-2.1-.6-.4.3-3.9.7-7.9.8-9 .3-15.7 1.2-22.6 3.2-2.9.8-6 1.2-6.8.9-1-.4-1.2-.2-.8.6.5.7 0 .9-1.4.6-1.2-.4-2.2-.2-2.2.2 0 .9-4 2.5-5.2 2.2-.5-.1-.8.6-.8 1.5 0 1.5-.2 1.6-1 .3-.6-1-1-1.1-1-.3 0 .7-.4 1.3-1 1.3-1.7 0-1.1-1.3 2.2-5 1.7-1.9 2.8-2.7 2.5-1.8-.7 2 1 2 3 .1 1.8-1.6 1.6-2.3-.4-1.6-1.5.5-1.6.3-.6-.7.7-.8 3-1.4 5-1.5 2.1-.1 5.1-.7 6.7-1.3 1.5-.7 3.9-1.3 5.1-1.4 1.4-.1 2.1-.7 1.8-1.5-.4-1 .9-1.3 5-1.3 5.5 0 8.3-1.4 5-2.4-1-.3-.4-.3 1.2 0 1.7.2 6.9.7 11.8 1.1 7.7.5 9.4.3 14.7-1.8 3.3-1.3 8.2-4 10.8-6.1 4.6-3.6 9.2-4.9 9.2-2.6m62 8.8c0 .5-.5 1-1.1 1-.5 0-.7-.5-.4-1 .3-.6.8-1 1.1-1 .2 0 .4.4.4 1m10.3 1.2c1.3 5.2 1.9 12.8 1.2 14.5-.4 1-.7 3-.6 4.5.2 2-1 4-4.5 7.8-4.5 4.8-7.4 6.3-7.4 3.7 0-.6 1.2-4.4 2.6-8.2 1.4-3.9 2.8-8.6 3.1-10.5l.6-3.5-4.7 3.8c-4.4 3.7-4.6 3.7-3.6 1.2 1.3-3.4 1.3-3.5-.6-2.8-.9.3-2 0-2.5-.8-.6-1.1-1.4-.8-3.6 1.3-4 3.7-13.5 8.6-14 7.2s-.5-1.3-13.3 1.8c-5.2 1.2-9.6 2.6-9.8 3-.2.5-1.5.8-2.8.8s-4.3 1.6-6.6 3.7c-2.4 2-5.2 4.4-6.2 5.3-1.8 1.4-1.8 1.4-.8-.6.7-1.2 2.6-3.6 4.4-5.3 8.1-7.6 12.4-11.1 13.5-11.1.6 0 1.3-.4 1.5-.8.4-1.1 14.9-6.4 15.6-5.7.3.3 1.2-.4 1.9-1.5 1.2-1.7 2.4-2 7.3-1.9 4.5.2 7.1-.4 11-2.3 2.7-1.4 5-2.1 5-1.7s-.4 1-.9 1.3-.7 1.4-.4 2.4c.7 2.7 4.5 1.7 8.4-2l3.1-3-.7 3.2c-.5 2.3-.4 3 .4 2.6.6-.4 1.1-2.5 1.1-4.7 0-4.2 1.4-5.3 2.3-1.7m-130.3.2c0 .2-.7.6-1.5 1-.8.3-1.5.1-1.5-.4 0-.6.7-1 1.5-1s1.5.2 1.5.4m-5 1.6c-.8.5-1.9 1-2.5 1-.5 0-.3-.5.5-1s2-1 2.5-1c.6 0 .3.5-.5 1m99 .4c0 2.2-2.7 3.9-7.8 4.9-6.1 1.2-12.6 1.1-15.2-.3-2.7-1.5-1.6-3.1 1.8-2.5 1.5.3 6.1-.4 10.2-1.4 9.3-2.4 11-2.5 11-.7m-127 7.1c0 2.5-5.2 8.4-10.8 12.4-1.8 1.3-4.7 3.6-6.5 5.2-1.7 1.6-3.5 2.9-3.8 2.9-.4 0-1.4 1.2-2.2 2.7-7.4 14.3-15.4 31.3-18.4 39.3-3.5 9.3-4.2 6.7-1.4-5.1 1-4.6 2.2-9.9 2.6-11.7s1.3-3.6 2.1-3.9 1.4-1.8 1.4-3.3c0-5.9 7.7-18 11.5-18 .8 0 1.8-.6 2.2-1.3s2-2.2 3.5-3.3c7.6-5.9 14.1-12.2 16-15.5 2.3-4.1 3.8-4.2 3.8-.4m173.9 16.6c3.1 15.3 1.7 20.4-8.1 27.8-2.7 2.1-2.1.6 1.3-3.4 1.7-2 2.4-3.3 1.5-2.9q-3 1.2 0-4.8c1.5-2.8 1.4-3.1-.6-5.3l-2.1-2.2 3-3c2.7-2.8 2.9-3.2 2-7.8-.5-2.7-1.1-5.1-1.4-5.3-.3-.3 0-1.1.7-1.9.6-.7 1.2-1.2 1.4-1s1.2 4.6 2.3 9.8m-207.8 3c-1.9 1.6-4.9 3.7-6.8 4.5-1.8.9-3.1 2-2.8 2.4s-1.1 2.1-3.1 3.6c-2 1.6-3.7 2.7-3.8 2.4-.4-.8-3.6 2.1-3.6 3.2 0 .6.8.4 1.8-.3q2.25-1.95.3.3c-.7 1-1.9 1.8-2.6 1.8-.8 0-2.1 1.5-3 3.2-2.1 4.3-5 21.7-3.9 22.8.6.6.6 4.9.1 10.2-.4 5.1-.7 11.5-.7 14.1.1 3.2-.3 4.7-.9 4.2-.6-.3-1.1-1.3-1.1-2.2 0-.8-.6-2.9-1.4-4.6-1.5-3.5-2.7-7.9-2.9-11.5-.1-1.2-.6-2.2-1.1-2.2s-.5-2.4-.1-5.3c.4-2.8.8-7.9 1-11.2.4-7.7 1-8.8 7.5-16 11.5-12.5 15.9-16.2 20-16.9 2.2-.3 4.3-1.2 4.7-1.9.7-1.3 4.2-3.6 5.3-3.7.3 0-1 1.4-2.9 3.1m187 5.4c-.1 1.5-2.4 1.2-2.9-.3-.3-.9.2-1.3 1.2-1 1 .1 1.7.7 1.7 1.3m6.9-.7c0 1.4-1.1 2.1-2.6 1.5-.8-.3-1.1-.9-.8-1.4.7-1.1 3.4-1.2 3.4-.1M862.6 438c3.7 4.1 10.5 7 16.8 7 4.2.1 6.5 1.6 12.6 8.2 3 3.3 6 5.8 7.2 5.8 2.3 0 5.8 1.7 5.8 2.9 0 .4-4 1.1-8.8 1.4-17.2 1.2-29.3 7-42.7 20.2-13 12.9-19.1 23.9-16.9 30.4.8 2.2 1.6 2.7 5.3 2.9 3.8.3 5.3-.3 12.4-5 17.8-11.7 33.9-17.1 51.7-17.2l10.5-.1.7 7.7c.4 4.2 1.2 9.6 1.8 11.9.6 2.2 1 4.3.8 4.4-.2.2-3.9-.1-8.3-.7-4.4-.5-13.6-.8-20.5-.5-10.1.3-13.9.9-19.8 3-9.9 3.4-21.1 10-28.3 16.5-7 6.4-7.9 9.1-1.1 3.5 6.1-5.1 13.8-10.3 15.1-10.3.7 0 .7.8.1 2.6-.6 1.4-1 5-1 8 0 9.4 4.4 15.4 15.4 21.2 4.7 2.4 6.1 2.7 16.1 2.6 13.9 0 20.5-1.8 26.9-7.5 8.3-7.3 11.2-16.6 8.1-25.9-2.7-8.1-1.1-6.9 3.6 2.6 3.5 7.1 6 10.6 13.2 17.9 14 14.2 20.6 24.2 25.7 39 6.7 19.3 6.3 45.4-1 66.2-6.5 18.5-24.9 36.5-49.5 48.3-21 10.1-34.7 13.7-55.6 14.7-45 2-88.5-14.2-136.9-51-5.8-4.4-10.9-8.6-11.3-9.4-1.4-2.4-3.6-1.4-5.6 2.5-2.5 4.9-9.1 10.8-15 13.6-3.8 1.7-6.4 2.1-15.6 2-10.5 0-11.4-.2-19.3-3.7-18.4-8.1-26.9-17.1-32.2-33.7-4.6-14.5-1.2-37.9 6.6-45.3 7.4-6.9 11.2-8.7 18.3-8.6 3.6 0 8.8.4 11.6.7 4.6.7 5.2 1.1 8.7 6.2 2 3 3.7 6.5 3.7 7.7.1 2.8 1.7 2.9 5.6.3 4.4-2.9 5-2.4 1.3.9-4.4 3.9-2.8 5.1 2.2 1.6 3.8-2.6 5.3-5.5 2.9-5.5-.5 0-.7-.5-.4-1 .4-.6.2-1.7-.4-2.4-.7-.8-2.6-5.6-4.3-10.7-2.4-7.2-3.1-11-2.9-16.2 0-4.1-.5-8.2-1.4-10.4-1.7-4.1-1.9-10-.5-13.8 1-2.6-.9-12.5-2.9-14.9-.5-.6-1.4-3.6-1.9-6.6l-1-5.5 4.4-6.5c4.4-6.5 7.4-14.1 7.4-18.7 0-1.6 2.2-4.9 6.2-9.3 8.4-9.2 13.8-18.3 13.8-23.1 0-2.9.6-4 2.7-5.4 2.4-1.6 4-1.7 15.7-.9 16.5 1.1 29 1.1 33.8.1 2-.4 6-2.4 8.8-4.3l5.2-3.6 12.6.7c12.7.7 17.7 0 27.3-3.6 2-.8 5-.6 11.1.5 4.7.9 11.8 1.6 16 1.6 6.6 0 8.4-.4 14.6-3.5 3.8-1.9 7.5-4.2 8.2-5 1.8-2.2 2.6-1.9 6.6 2.5m48.4-.3c0 3.1-2.4 8.3-3.8 8.3-1.5 0-1.2-2.1.8-7.5 1.1-2.8 3-3.4 3-.8m7.9 31.6c6.2 2.5 8.9 5.6 9.8 11 .5 3.1.1 4.2-1.7 6.3-2.7 2.7-9.1 4.8-12.1 3.9-2.7-.9-1.4-2.5 2.1-2.5 4 0 9-4.4 9-7.9 0-3.3-4-7.3-9-9.1-1.9-.6-8.7-1.4-15-1.7-13.6-.7-12.2-2.1 2-2.2 7.6 0 10.6.4 14.9 2.2M648 480.5c0 .6-1.3 3.1-2.8 5.6-1.6 2.4-3.4 6.4-4.1 8.9s-2.1 5.6-3.1 7c-1.8 2.4-1.8 2.4 1.2 5 2.4 2.1 2.9 3.2 2.3 4.9-.5 1.8-1.2 2.1-3.2 1.6l-2.5-.6 2.1 3c4.3 6 1 6.5-6.2.9-6.5-5.2-6.9-6.1-4.4-13 2.2-6 2.9-7.1 10.5-14.1 2.2-2.1 4.7-5.3 5.6-7.1 1.5-3.1 4.6-4.6 4.6-2.1m-.5 27.6c0 .7-.8 1.5-1.7 1.7-1.8.3-2.5-1.8-1.1-3.2 1-1 2.8-.1 2.8 1.5m256 22.3c1.9.8 4.1 2.8 5 4.5 1.3 2.7 1.4 3.5.2 6.3-2.5 6.1-14.1 11.8-23.8 11.8-7.1 0-14.2-7.4-12.3-12.8 1.1-3.2 7-8 12-9.7 5.1-1.8 14.6-1.9 18.9-.1m-262.7 14.5c5.2 5.6 6.7 8.3 7.6 13.9.5 3.2.2 5.1-1.1 7.2-1.4 2.4-1.4 3.1-.4 4.4 1.8 2.1.2 2-2.1-.1-2.2-2-2.2-3.2-.3-6.9 2.8-5.3 2-7.7-5-15.3-3.6-3.9-6.5-7.7-6.5-8.4 0-2.3 1.5-2.9 2.5-1.1.5 1 2.9 3.8 5.3 6.3m77.7 134.7c-.8 1.6-1.5 3.6-1.5 4.4 0 .9-.4 2-.9 2.5-1.5 1.7-4.1 13-4.1 17.8s-1.6 9.7-3.3 9.7c-.5 0-.6-.7-.3-1.6.4-.9.2-1.3-.5-.8q-1.05.6-.6-1.2c.3-1.1.9-4.6 1.3-7.9.8-6.8 3-13 7.5-21 3.2-5.7 5.2-7.2 2.4-1.9m-6.1 34.9c.3.8.1 1.5-.4 1.5-.6 0-1-.7-1-1.5s.2-1.5.4-1.5.6.7 1 1.5m-18.4 2.6c-.7 1.1-1.4 1.8-1.7 1.5s0-1.2.7-2.1c1.8-2.1 2.3-1.9 1 .6m110 1.9c0 2.2-2.4 3.2-3.9 1.7-1.4-1.4-1.4-3 .1-4.5s3.8.2 3.8 2.8m-93.5 2c.3.5.1 1-.4 1-.6 0-1.1-.5-1.1-1 0-.6.2-1 .4-1 .3 0 .8.4 1.1 1m-36.5 2c-.6 1.1-1.3 2-1.6 2-.2 0 0-.9.6-2s1.3-2 1.6-2c.2 0 0 .9-.6 2m138 5.4c0 .2-.8 1-1.7 1.7-1.6 1.3-1.7 1.2-.4-.4s2.1-2.1 2.1-1.3m25.5 3.6c1 1.1 1.6 2 1.3 2s-1.3-.9-2.3-2-1.6-2-1.3-2 1.3.9 2.3 2m-166.9 2.9c0 1.1-.4 1.7-.8 1.5-.4-.3-.8-1.2-.8-2s.4-1.4.8-1.4.8.9.8 1.9m63 15.5c1.5 1.2 1.7 1.9.8 3.2-1.6 2.7-3.1 2.8-4.4.4-1.2-2.2-.7-5 .8-5 .4 0 1.7.6 2.8 1.4m72.6 14.3c2.2 2 2.3 3.6.3 5.3-1.3 1-1.9 1-3.5-.5-2.5-2.2-2.7-6.5-.3-6.5.9 0 2.5.7 3.5 1.7m-71.2 6.7c1.8 2.3.8 6.1-1.6 6.4-1.6.2-2.3-.4-2.8-2.2-1.2-4.7 1.7-7.4 4.4-4.2m-3 16.1c0 .8-.4 1.5-1 1.5-.5 0-.7-.7-.4-1.5.4-.8.8-1.5 1-1.5s.4.7.4 1.5m74.4 1.7c2 2.8 2 3.3 0 5.2-2.1 2.2-3.3 2-4.5-.8-.8-1.7-.8-2.9 0-4.5 1.5-2.7 2.6-2.7 4.5.1m-71.9 2.8c1.5 1.7 1.6 2.4.7 4.5-1.4 3-4.7 3.3-6.2.6-.7-1.4-.7-2.7.2-4.5 1.4-3.1 2.9-3.3 5.3-.6m-6.5 8.4c0 .3-.4.8-1 1.1-.5.3-1 .1-1-.4 0-.6.5-1.1 1-1.1.6 0 1 .2 1 .4m79 14.8c0 1.3-.8 1.8-3 1.8-2.6 0-3-.3-3-2.9 0-1.6.6-3.1 1.3-3.4 1.7-.6 4.7 2.2 4.7 4.5m5.3 15.9c.8 1.1 1.3 2.9 1 4-.8 2.8-4.7 2.4-6.4-.7-1.2-2.3-1.2-2.7.6-4 2.5-1.9 3.1-1.8 4.8.7m87.5 6.6c4.1 4.3 6.7 6.3 7 5.5.2-.8-.8-2.6-2.2-4.1-5.8-6-1.8-4.7 5.6 1.9 4.4 3.9 4.7 4.3 3.4 6.2-.8 1.1-2.8 2.9-4.5 3.9-3 1.8-3.1 1.8-3.1 0 0-2.1-1.6-3.7-6.3-6-1.7-.9-3.3-2.5-3.5-3.6-.8-5.2-1.3-6.3-3.7-6.9-1.4-.4-2.5-1.3-2.5-2.1 0-3.2 3.6-1.2 9.8 5.2m-195.1 7c-.9 2.1-1.7 4.7-1.9 5.8-.2 1.5-1.2 2-3.7 2.2-1.8.1-3.8.6-4.4 1.2-1.7 1.7-3.7-.7-3.7-4.3 0-4.3 5.2-9.3 10-9.8 4.9-.5 5.6.5 3.7 4.9M788 857c2.2 2.2 1.7 4.6-1.1 5.5-2.5.8-3.5.1-4.3-3.1-.5-1.8-.3-3 .6-3.5 1.9-1.3 2.6-1.1 4.8 1.1m-11.5 19c.8 2.7-1.2 5.2-3.9 4.8-2.1-.3-3.2-2.8-2.2-5.4.8-2.2 5.4-1.8 6.1.6m85.1 106.9c6.1 12.7 5.1 24-2.4 28.4-4.7 2.8-10.2 2.5-15.6-.7-2.5-1.5-4.6-3.2-4.6-3.8 0-.5 1.2-.2 2.8.8l2.7 1.8-2.8-3.5c-4.4-5.5-7.7-12.4-9.4-20-.8-3.8-1.3-7.2-1.1-7.4.3-.3 3 0 6.2.6 6.5 1.2 10.4.3 15.1-3.5 3.8-3.1 4.5-2.5 9.1 7.3m-67.1 1.1c.4 1.7 2.5 5.3 4.7 8.1 6 7.6 7.8 12.3 7.8 20.6 0 6.6-.3 7.6-2.8 10.4-1.7 1.9-4.6 3.6-7.7 4.5-3.9 1.1-4.2 1.3-1.4 1 2.9-.3 6.6-1.7 12.3-4.4 1.6-.8-.1 7.9-1.9 9.8-1 1.1-4.6 2.9-8.2 4.1-12.7 4.2-27.6.1-33.3-9.3-3.6-5.8-3.7-6.4-.8-4.4 4.3 3 5.4 1.7 1.6-1.9-2-1.9-4.2-4.3-4.7-5.4-1.6-2.8-1.3-11.9.4-17.7 2.4-7.7 2.7-8 6.8-5.5s9.8 2.7 13.8.4c1.5-.9 4.7-4.3 7-7.5 2.4-3.2 4.6-5.8 5-5.8s1 1.4 1.4 3"/><path d="M800 378.7c-.8.4-2.9 2.2-4.7 4.1-2 2.1-3.8 3.2-4.7 2.9q-1.5-.6-.9.9c.8 2.1 1.3 1.8 7.3-3.6 5.5-4.9 5.8-5.3 3-4.3m-15.7 4c.9.2 2.5.2 3.5 0 .9-.3.1-.5-1.8-.5s-2.7.2-1.7.5m-7 1c.9.2 2.5.2 3.5 0 .9-.3.1-.5-1.8-.5s-2.7.2-1.7.5m86.7 3.5c-1.9 1.7-4.8 3.9-6.5 4.9-1.6 1-2.5 1.9-1.9 1.9 1.4 0 9.6-5.3 11.3-7.4 2.4-2.9.8-2.5-2.9.6m18 8.8c0 .5.5 1 1.1 1 .5 0 .7-.5.4-1-.3-.6-.8-1-1.1-1-.2 0-.4.4-.4 1m.7 6.6c-1.3 1.8-1.4 2.2-.3 1.8.8-.3 1.7-1.3 2-2.1 1-2.5.3-2.3-1.7.3M896 421c-.6 1.1-.8 2-.6 2 .3 0 1-.9 1.6-2s.8-2 .6-2c-.3 0-1 .9-1.6 2m-221.4-3.9c-1.4 1.1-2.6 2.5-2.6 3.1 0 .7.8.4 1.8-.6.9-.9 2.6-2.3 3.7-3.1s1.5-1.5.9-1.5-2.3.9-3.8 2.1M656.8 443c-.3 1.7-.1 3.3.4 3.6.4.3.8-1.1.8-3 0-4.4-.6-4.7-1.2-.6m-1.2 9.6c-.4 1.4-.5 2.8-.3 3.1.3.2.8-.8 1.1-2.3.4-1.4.5-2.8.3-3.1-.3-.2-.8.8-1.1 2.3m4.5 4c0 1.1.3 1.4.6.6.3-.7.2-1.6-.1-1.9-.3-.4-.6.2-.5 1.3m66.4 16.4c-16.6 4.3-26 9.6-35.8 19.9-6.9 7.2-9.7 12.8-9.7 19.6 0 8.4 4 13.2 11.9 14.2 4.1.6 4.3.4 11.6-6.6 8.1-7.9 14.9-11.5 28.2-15.3 11.2-3.1 28.1-3.1 37.7 0 9.7 3.1 16.3 7 18.7 10.9 4 6.4 10 8.2 14 4.2 4.1-4.1 1.3-14.8-6.5-25.7-12.5-17.6-45.9-27.6-70.1-21.2m31 2c14.5 3.4 26.7 10.6 34 20.1 2 2.6 3.4 5.3 3 5.9s-1.8-.5-3.5-2.8c-5.5-7.6-15.3-14.1-28.5-18.8-7.1-2.5-9.4-2.8-20-2.9-6.6 0-13.1.4-14.5.8-2.5.9-2.5.9-.3-.7 5.2-3.9 17.3-4.5 29.8-1.6m117.6 31.6c-7.4 1.5-20.9 6.9-19.8 8 .3.3 1.7-.2 3.1-1.1s6.5-2.7 11.3-4.1c7-1.9 11.4-2.4 21.8-2.5 10.2-.1 11.9-.3 8-.9-7.5-1.2-16.2-1-24.4.6"/><path d="M762.5 521.6c-20.5 3.1-38.5 11.1-50.6 22.5-1.9 1.9-2.6 2.7-1.5 1.8 8.5-6.5 19.6-13.4 26.3-16.3 14.5-6.2 28.4-7.6 51.3-5.1l4.5.5-4.3-1.5c-4.4-1.4-20.5-2.6-25.7-1.9m-3 17.9c-23.3 4.2-46.3 17.5-57.9 33.4-5.1 6.9-4.5 7.1 1.4.7 4.8-5.1 12.1-11.2 18.2-15.1l2.8-1.7-1.4 3.4c-.8 1.9-1.8 5.8-2.2 8.6-2.2 16.8 16.3 29.2 41.6 28 7.4-.4 9.8-1 18.5-4.8 11-4.9 17.3-10.3 20.6-17.5 2.3-4.9 2.5-15.2.5-20-1.4-3.1-1.3-3.5.7-4.8 1.9-1.2 2-1.7.8-3-2.1-2.5-11-6.4-17.5-7.6-7.6-1.4-17.2-1.3-26.1.4m25.6 15.3c5.4 6 3.2 13-6.6 20.4-6.6 5.1-14 7.2-22.2 6.5-7.1-.7-11.2-2.5-14.2-6.3-4.9-6.2-.3-14.8 10.9-20.4 7.1-3.6 8.9-3.9 19.3-3.7 9.8.2 9.9.2 12.8 3.5m42.4 137.9c-1.6.2-4.7.8-6.8 1.4-4.8 1.3-3.9 3.4 1.2 2.4 7-1.4 14.4-.7 16.3 1.6 1.8 2.1 3.8 1.8 3.8-.6 0-3.1-7.6-5.6-14.5-4.8M633.9 496.8c-1 2.6-.7 10.7.4 11.8.3.4 1.1.3 1.6-.1.8-.4.7-1.1-.2-2-1.8-1.7-1.5-11.1.2-10 .5.3 1.2.1 1.5-.4s-.1-1.2-.9-1.5c-1.1-.4-1.9.3-2.6 2.2M772 1027c0 .5 1 1 2.3 1 1.8 0 1.9-.2.7-1-1.9-1.3-3-1.3-3 0m-58.8-123.5c-4 1.7-3.4 3.5 1.2 3.5 4 0 6.8-2.6 4.5-4.1-1.8-1.1-1.7-1.1-5.7.6m-11.7 3.7c1.1 3.7 2.3 4.4 4.2 2.6 1.3-1.4 1.4-2 .3-3.2-.7-.9-2.1-1.6-3.2-1.6-1.5 0-1.8.5-1.3 2.2M713 912c-1.6 1.6-1.8 2.5-1 4 .5 1 1.5 2.2 2 2.5.6.3 1 1.6 1 2.9 0 3 1.8 4.6 5.1 4.6 3.8 0 5.9-1 5.9-2.7 0-1.2-.8-1.4-3.5-1-4.5.7-5.4-.8-1.5-2.8 4.2-2.1 3.8-3.3-1.2-3.7-4.6-.3-5.5-2.1-1.3-2.6 1.4-.2 2.5-1 2.5-1.8 0-2.2-5.7-1.7-8 .6m10.2 17.1c-1.8 1.7-3.2 3.8-3.2 4.8 0 4 7.6 7.3 10.4 4.5 2.2-2.1 2-4-.6-6.6-1.3-1.3-2.2-2.8-2-3.5.5-2.4-1.5-2.1-4.6.8m3.7 4.5c3 2.1 1.4 3.8-2.2 2.5-2.7-1-3.3-2.1-2-3.4 1-1 1.6-.9 4.2.9m-2.9 8.2c0 1.1.5 2.4 1 2.7.8.5.7 1.2-.2 2.2-1.2 1.4-.8 1.5 3.6.9 2.7-.4 5.5-1 6.3-1.3 2.6-1 .6-2.8-2.7-2.5-2.3.2-4-.4-5.7-1.9l-2.3-2.2zm4.2 9.4c-2 2-1.4 6.5 1 8.2 4.3 3 9.8 1.5 9.8-2.6 0-4.6-7.8-8.6-10.8-5.6m6.3 3.8c1.4 1.6 1.6 2.3.6 3.3-1.6 1.6-4.5-.3-4.9-3.2-.4-2.7 1.9-2.8 4.3-.1m-6.5 10c-4.4 4.4-3.7 12.1 1.7 18.1 1.9 2.1 4 3.9 4.5 3.9.6 0-.4-1.6-2.1-3.5-4-4.6-5.6-10.6-3.9-14.3 2-4.1 5-3.9 9.2.4l3.7 3.8-2.3 1.3c-1.3.7-3.1 1.2-4 1.3-3.7 0-1.6 2 2.1 2 2.2 0 4.3.4 4.6 1 1.2 2 3.5 1 3.5-1.5 0-3.7-2.3-7.7-6.5-11.4-4.1-3.6-7.6-4-10.5-1.1m2.9 93.9c-7.1 2.3-11.4 4.8-13 7.8-1.1 2.1-.6 3.7 5.4 15.6 3.6 7.2 7.1 14.5 7.7 16.1 1.4 3.7 2.1 2.9 5.6-6.2 2-5.3 3.3-7.2 4.6-7.2 3 0 9.1-2.9 12.2-5.8 6.2-5.9 6.5-13.4.6-18.3-5.2-4.4-13.5-5.1-23.1-2m14.1 3c0 1.3-6.2 17.5-6.9 18.1-.3.3-.6 1.2-.6 2s-.8 1.6-1.7 1.8c-1 .2-1.8-.1-1.8-.7s.5-1.1 1.2-1.1c.6 0 .9-.3.6-.6-.8-.8-4.8 1.4-4.8 2.6 0 .6 1.1 1 2.5 1 3 0 3 .2.8 6.5l-1.6 4.9-6.3-12.5c-3.5-6.8-6.3-13.4-6.3-14.6-.1-2.6 3-4.9 9.1-6.8 4.9-1.6 15.8-1.9 15.8-.6m6.5.7c2.9 1.1 4.4 6.1 3.1 9.9-.7 1.8-1.8 4-2.6 5-1.7 2-8.3 5.5-10.5 5.5-3 0 .3-3.9 5.5-6.5 2.8-1.4 5-2.8 5-3 0-.3-1.8.4-4.1 1.5-2.3 1.2-4.3 2-4.5 1.8-.5-.6 5-14.8 5.8-14.8.3 0 1.4.3 2.3.6m92.7 2.4c-.5 1.4-2.4 6.7-4.2 11.7-1.8 5.1-3.6 9.3-3.9 9.3-.4 0-1.7-2-3.1-4.5s-2.9-4.4-3.5-4.2c-1.3.5-1 19.6.4 21 1.3 1.3 4-.8 5.2-4.2l1-2.4 2.2 2.2c2.6 2.3 4.7 2.7 6.5.9.8-.8 1.5-.8 2.8.3 1.5 1.2 2.1.8 5.8-3.4 2.3-2.6 4.5-4.7 4.9-4.7.3 0-.1 1.6-.9 3.5-.7 1.9-1.4 3.9-1.4 4.5 0 1.9 3.4 1 6.3-1.8l2.9-2.7-.7 2.7c-.9 3.6 1 3.7 4.6.2l2.8-2.6 2.7 2.1c4 3.1 8.3 4 14.2 2.8 2.9-.6 5.2-1.5 5.2-2 0-.4-.9-.6-2-.3s-2.9.8-4 1.2c-3.2.9-9.7-1.4-11.4-4.1-2.1-3.1-2.7-3.1-6.7.2l-3.2 2.8.6-4.5.7-4.5-4 4.5c-4.4 4.9-4.8 4.8-2.5-.7 1.9-4.4 1.9-5.3.1-5.3-.8 0-3.5 2.3-6 5.1-2.6 2.9-4.9 4.9-5.2 4.6s.6-2.8 2-5.6c3-5.8 3.1-6.1 1.2-6.1-.7 0-2.3 2.2-3.5 5-2.4 5.7-6.4 8.9-8.9 7.4-3.8-2.5-3.8-3.9 1.1-16 3.2-8.2 4.4-12.2 3.7-13.3-.7-1.4-1-1.2-1.8.9m-11 22c1.4 2.4 1.5 3.5.5 6-1.6 4.3-2.7 3.7-2.7-1.4 0-2.4-.3-5.1-.6-6-1.1-2.8 1-1.7 2.8 1.4m-69.5-19.8c-2.1 1.1-3.6 2.2-3.3 2.5.2.2 1.4 0 2.5-.7 1.2-.6 2.1-.8 2.1-.5s-2.9 6.4-6.6 13.6c-3.6 7.2-6.4 13.8-6.2 14.7.2 1.1 2.8-1.5 7.7-7.6 4-5.1 7.5-9.1 7.7-8.9s-.7 3.2-2.1 6.7-2.5 7-2.5 7.7c0 2.5 2.5 1.2 6-3.2 4.2-5.4 5.6-5.8 3.5-.9-1.8 4.4-1.9 5.4-.2 5.4.7 0 3-2.3 5.2-5.1 2.2-2.9 4.1-4.6 4.3-3.9.2.6-.1 1.7-.7 2.3s-1.1 2.4-1.1 3.9c0 3.4 2.1 3.7 5 .8 2.4-2.4 3.4-2.6 2.6-.5-1.2 3.2 2.5 2.8 5.4-.6l2.9-3.4-.6 3.2c-.7 4.1.7 4.3 4.9.8 1.7-1.4 3.2-2.4 3.4-2.2s-.5 2.2-1.6 4.5-2.3 5.6-2.7 7.3c-1.1 5.6 1.8 2.8 4.7-4.6 2.9-7.3 8.1-14.5 10.6-14.5 2.2 0 1.7.9-2.6 5.1-4.6 4.5-5 5.9-1.6 5.9 2.3 0 7.6-4.9 7.6-7.1 0-.5 1.5-1.9 3.3-3l3.2-2-3.2.6c-2.1.4-3.3.3-3.3-.4 0-1.7-4.1-1.3-6.3.6-1.5 1.4-2.1 1.5-2.4.5-.3-.7-2.6.9-6 4.3-3.1 3.1-5.8 5.3-6 5.1-.3-.3.9-3 2.7-6.1 3.4-6 3.2-9-.4-4-2.6 3.7-8.8 9.6-9.4 9-.3-.2 1.4-4.3 3.7-9.1 2.2-4.7 4.1-9 4.1-9.5 0-2.4-1.9-.2-5.3 6.4-3.6 6.8-9.4 14.4-10.3 13.5-.5-.6 4.1-12.5 6.1-15.4 1.7-2.6 1.9-4.4.6-4.4-.5 0-2.3 2.4-4 5.2-3.3 5.7-10.1 13.8-10.1 12.1 0-.6 1.2-3.6 2.6-6.7 1.4-3.2 2.3-6 1.9-6.4-.3-.4-1.1.2-1.8 1.3-1.3 2.3-9.9 11.7-10.3 11.2-.2-.1.3-2.1 1-4.2 4.1-11.9 2.6-13.6-4.3-5-2.4 3-4.6 5.3-4.8 5.1s1.9-4.9 4.7-10.4c2.7-5.6 5-10.4 5-10.7 0-.8-1.1-.4-5.3 1.7m50.3 24.3c-.7.8-1.7 1.5-2.3 1.5-.5 0-.2-.9.8-2 2.1-2.3 3.5-1.9 1.5.5"/><path d="M780.3 1068.4c.2.6 1.2 1.1 2.2 1.1s2-.5 2.2-1.1c.2-.7-.7-1.2-2.2-1.2s-2.4.5-2.2 1.2m78.7 2.4c-2.1 1.7-2 5.2.2 5.2.6 0 .8-.7.5-1.5-.4-.8.5-2.3 2-3.5 1.7-1.3 2.1-2 1-2-.8 0-2.5.8-3.7 1.8m-53 4.8c0 .8.5 1.2 1 .9.6-.3 1-1 1-1.6 0-.5-.4-.9-1-.9-.5 0-1 .7-1 1.6m-118.8.6c-2 2-1.4 2.8 1.3 1.6 1.9-.9 2.8-.9 3.7 0 1.5 1.5-.7 4.2-3.3 4.2-2.5 0-2.4.8.4 3 2.1 1.8 2.1 2 .5 3.6-1.5 1.6-2.1 1.6-4.3.4-2.9-1.6-4.3-.7-2.5 1.5 2 2.4 6.9 1.5 9.3-1.8 1.6-2.1 1.8-3 .9-3.9s-.8-1.6.4-2.9c.9-1 1.4-2.8 1.2-4.1-.2-1.7-1-2.4-3.3-2.6-1.7-.2-3.6.3-4.3 1m18.1.9c-1.8 1.2-3 2.5-2.7 3 .3.6 1.1.5 2-.2 2.4-1.9 2.7-.3 1 4.8-1.9 5.9-2 6.7-.7 7.1.5.2 1.9-2.9 3.1-6.9 1.2-3.9 2.4-7.8 2.7-8.5.8-2-1.7-1.7-5.4.7m-7.6 6.6c-1.2 1.1-.8 2.3.8 2.3.8 0 1.5-.7 1.5-1.5 0-1.6-1.2-2-2.3-.8m218.3 3.4c-4.9 1.7-5.1 1.9-1.5 1.3 4.1-.6 11.1-3.3 8.5-3.2-.8 0-4 .9-7 1.9"/></svg>