<svg xmlns="http://www.w3.org/2000/svg" width="1000" height="240"><path fill="none" d="M-1-1h582v402H-1z"/><path fill="none" stroke="#6D97AB" stroke-linecap="square" stroke-width="40" d="M69 38h120.596c9.273 0 9.276 33.6 9.276 50.4V206H79.204C68.996 206 69 172.4 69 155.6s-.004-50.4 9.277-50.4h102.042m649.361 33.6h102.043C941 138.8 941 105.2 941 88.4s0-50.4-9.277-50.4H820.404c-9.276 0-9.276 33.6-9.276 50.4v67.2c0 16.8 0 50.4 9.276 50.4H941M440.064 105.2V206m0-167.832v.504M384.404 206V88.4c0-16.8 0-50.4-9.276-50.4h-111.32c-9.276 0-9.276 33.6-9.276 50.4V206m500.936 0V88.4c0-16.8 0-50.4-9.277-50.4H505c-9.277 0-9.277 33.6-9.277 50.4V206"/><path fill="none" stroke="#F6F4F2" stroke-linecap="square" stroke-width=".256" d="M496.992 119.36h.832c.064 0 .064.256.064.384v.896h-.826c-.07 0-.07-.256-.07-.384s0-.384.064-.384h.704m4.48.256h.704c.064 0 .064-.256.064-.384s0-.384-.064-.384h-.768c-.064 0-.064.256-.064.384v.512c0 .128 0 .384.064.384h.832m-3.456-.768v.768m0-1.279v.004m-.384 1.275v-.896c0-.128 0-.384-.064-.384h-.768c-.064 0-.064.256-.064.384v.896m3.456 0v-.896c0-.128 0-.384-.064-.384H500c-.064 0-.064.256-.064.384v.896"/></svg>