<svg xmlns="http://www.w3.org/2000/svg" width="640" height="562" fill="none" viewBox="0 0 640 562"><path fill="url(#a)" d="M320 75.4 142.983 179.57l176.824 102.46 177.209-102.46z"/><path fill="url(#b)" d="m141.359 385.457 1.707-205.672 177.989 102.524-.929 204.391z"/><path fill="url(#c)" d="M241.779 29.838a4820 4820 0 0 0 20.239 11.62l57.969 34.11v206.138L143.053 179.785l.58-69.977c.046-8.464.052-16.22.057-23.338.043-55.02.056-71.903 17.924-82.219s32.495-1.885 80.165 25.587"/><path fill="url(#d)" d="m498.541 385.457-1.707-205.672-177.989 102.524.929 204.391z"/><path fill="url(#e)" d="M398.122 29.839c-6.168 3.554-12.888 7.427-20.24 11.62l-57.968 34.11v206.137l176.934-101.92-.581-69.978c-.045-8.463-.051-16.22-.057-23.338-.043-55.02-.056-71.902-17.923-82.218-17.868-10.316-32.496-1.886-80.165 25.587"/><path fill="url(#f)" d="M401.462 532.921c47.67 27.472 62.298 35.902 80.165 25.586 17.868-10.315 17.881-27.198 17.924-82.218.005-7.118.011-14.874.056-23.338l-.563-68.117-177.989-102.525-.929 204.39 61.097 34.602a4820 4820 0 0 1 20.239 11.62"/><path fill="url(#g)" d="M239.266 531.951c-47.67 27.473-62.298 35.903-80.165 25.587s-17.881-27.199-17.924-82.218c-.005-7.118-.011-14.875-.056-23.338l.563-68.117L319.673 281.34l.929 204.39-61.097 34.602c-7.352 4.192-14.072 8.065-20.239 11.619"/><path fill="url(#h)" d="M62.241 226.925C14.615 254.471 0 262.924 0 283.556s14.615 29.085 62.241 56.631a5083 5083 0 0 1 20.183 11.718l150.586 85.289c3.847 2.169 7.404 4.199 10.729 6.097l.036.021c30.214 17.245 41.251 23.545 76.225 23.545s46.01-6.3 76.224-23.545l.027-.016c3.328-1.899 6.889-3.931 10.739-6.102l150.586-85.289c7.307-4.27 14.021-8.154 20.183-11.718C625.385 312.641 640 304.188 640 283.556s-14.615-29.085-62.241-56.631a4969 4969 0 0 1-20.183-11.719l-60.559-35.637-177.13 102.134-176.904-102.134-60.559 35.637a4970 4970 0 0 1-20.183 11.719"/><path fill="url(#i)" d="M498.092 267.562v-.048c-.172-34.788-.235-47.497-17.722-77.785s-28.461-36.696-58.503-54.239l-.048-.029c-3.303-1.929-6.836-3.992-10.633-6.236L320 75.568v206.145l179.044 103.121-.868-104.938c-.045-4.413-.065-8.507-.084-12.334"/><path fill="url(#j)" d="m141.891 267.796.001-.048c.171-34.789.234-47.497 17.721-77.785 17.487-30.289 28.461-36.697 58.503-54.24l.049-.029a2199 2199 0 0 0 10.632-6.236l91.187-53.656-.001 206.145-179.044 103.12.868-104.937c.045-4.414.065-8.507.084-12.334"/><defs><linearGradient id="a" x1="499.284" x2="320" y1="385.078" y2="75.4008" gradientUnits="userSpaceOnUse"><stop stop-color="#6FCF97"/><stop offset="1" stop-color="#6FCF97" stop-opacity="0.1"/></linearGradient><linearGradient id="b" x1="319.958" x2="141.662" y1="75.4275" y2="384.031" gradientUnits="userSpaceOnUse"><stop stop-color="#F2C94C"/><stop offset="1" stop-color="#F2C94C" stop-opacity="0.1"/></linearGradient><linearGradient id="c" x1="319.287" x2="141.262" y1="75.2308" y2="384.094" gradientUnits="userSpaceOnUse"><stop stop-color="#F2C94C"/><stop offset="1" stop-color="#F2C94C" stop-opacity="0.1"/></linearGradient><linearGradient id="d" x1="142.159" x2="498.527" y1="386.29" y2="384.94" gradientUnits="userSpaceOnUse"><stop stop-color="#EB5757"/><stop offset="1" stop-color="#EB5757" stop-opacity="0.1"/></linearGradient><linearGradient id="e" x1="140.506" x2="499.47" y1="384.892" y2="384.892" gradientUnits="userSpaceOnUse"><stop stop-color="#EB5757"/><stop offset="1" stop-color="#EB5757" stop-opacity="0.1"/></linearGradient><linearGradient id="f" x1="319.957" x2="141.662" y1="75.4277" y2="384.031" gradientUnits="userSpaceOnUse"><stop stop-color="#F2C94C"/><stop offset="1" stop-color="#F2C94C" stop-opacity="0.12"/></linearGradient><linearGradient id="g" x1="142.319" x2="497.355" y1="385.037" y2="384.129" gradientUnits="userSpaceOnUse"><stop stop-color="#EB5757"/><stop offset="1" stop-color="#EB5757" stop-opacity="0.1"/></linearGradient><linearGradient id="h" x1="498.455" x2="320" y1="385.274" y2="75.9272" gradientUnits="userSpaceOnUse"><stop stop-color="#6FCF97"/><stop offset="1" stop-color="#6FCF97" stop-opacity="0.1"/></linearGradient><linearGradient id="i" x1="320.897" x2="141.276" y1="76.0264" y2="385.033" gradientUnits="userSpaceOnUse"><stop stop-color="#F2C94C"/><stop offset="1" stop-color="#F2C94C" stop-opacity="0.1"/></linearGradient><linearGradient id="j" x1="142.266" x2="498.38" y1="385.722" y2="383.129" gradientUnits="userSpaceOnUse"><stop stop-color="#EB5757"/><stop offset="1" stop-color="#EB5757" stop-opacity="0.1"/></linearGradient></defs></svg>