<svg xmlns="http://www.w3.org/2000/svg" xml:space="preserve" width="835" height="176" style="fill-rule:evenodd;clip-rule:evenodd;stroke-linejoin:round;stroke-miterlimit:1.41421" viewBox="0 0 658 134"><path fill="none" d="M0 0h658v134H0z"/><g fill="#3E3E3E" stroke="#3E3E3E"><path d="M629.14 118.162c.552 9.384 6.256 15.088 16.192 15.088 8.648 0 10.576-3.717 11.562-4.727 0 0-1.521 1.784-8.25 1.619-3.863-.095-4.968-3.7-4.968-9.036V73.082c0-16.008-9.016-25.208-31.28-25.208-19.32 0-29.808 6.808-29.808 16.928 0 7.36 5.704 11.96 13.984 11.96 3.864 0 7.741-3.003 7.741-3.003-7.509-.438-11.213-3.437-11.213-9.509 0-9.752 8.072-13.984 19.296-13.984 12.144 0 15.088 5.888 15.088 16.744v19.32h-1.84c-22.264 0-47.472 6.44-47.472 26.312 0 15.272 13.064 20.608 24.84 20.608 13.616 0 22.08-7.912 25.76-15.088zm-1.656-5.52c0 4.232-4.048 9.568-9.2 13.248-3.68 2.576-7.912 4.232-11.96 4.232-6.808 0-10.672-4.968-10.672-17.112 0-10.12 3.312-16.376 9.384-19.872 4.784-2.76 11.224-4.048 19.136-4.048h3.312zM452.556 133.06c3.191-4.032 7.178-3.945 12.679-2.579 6.174 1.533 12.436 2.579 18.577 2.579 18.032 0 29.072-11.224 29.072-25.944 0-33.12-53.36-20.056-53.36-41.4 0-10.488 10.12-15.272 21.896-15.272 2.76 0 5.52.184 7.912.552 2.024 8.832 6.44 16.928 13.984 16.928 4.6 0 6.992-2.944 6.992-6.072 0-5.336-6.992-11.04-18.584-13.248-.552-3.128-.736-6.256-.736-9.2 0-14.904 5.704-35.144 31.464-35.144 21.16 0 25.208 14.352 25.208 24.472 0 13.432-7.544 20.24-19.32 20.24h-5.888v2.76h12.328v57.408c0 13.984 3.866 25.759 21.344 23.92 5.19-.546 9.4-4.798 9.713-5.566 0 0-3.479 2.119-7.887 2.374-7.099.41-6.978-6.008-6.978-16.128V51.732H572.5v-2.76h-21.528V29.836c0-12.88-4.968-28.336-28.52-28.336-26.496 0-34.408 20.24-34.408 37.904 0 2.76.184 5.704.736 8.832-2.392-.368-4.968-.552-7.544-.552-12.512 0-28.888 5.704-28.888 24.656 0 34.224 52.992 20.792 52.992 42.32 0 10.304-9.752 15.64-21.344 15.64-17.112 0-24.783-4.484-27.824-19.271l-.683-3.566-.106.002s-.268 19.19-2.955 25.595zm39.904-81.512c9.384 2.024 14.904 6.624 14.904 10.488 0 1.84-1.104 3.312-4.048 3.312-5.704 0-9.2-6.44-10.856-13.8Zm-91.918 81.224h41.952v-2.76h-12.88v-80.04h-29.072v2.76h12.88v77.28h-12.88zm9.752-120.528c0 5.336 4.6 9.936 9.936 9.936s9.936-4.6 9.936-9.936-4.6-9.936-9.936-9.936-9.936 4.6-9.936 9.936ZM239.252 132.772h40.664v-2.76h-11.592V83.276c0-9.568 6.624-31.28 26.864-31.28 9.936 0 13.064 4.784 13.064 18.584v59.432H296.66v2.76h39.376v-2.76h-11.592V82.54c.368-9.936 6.992-30.544 26.864-30.544 9.936 0 13.064 4.784 13.064 18.584v59.432H352.78v2.76h40.664v-2.76h-12.88v-56.12c0-17.48-8.28-25.208-26.496-25.208-24.104 0-29.624 20.608-29.624 20.608h-.368c-1.288-14.168-9.568-20.608-26.128-20.608-24.104 0-29.624 20.608-29.624 20.608h-.368v-19.32h-28.704v2.76h12.88v77.28h-12.88zm-49.312 0h41.952v-2.76h-12.88v-80.04H189.94v2.76h12.88v77.28h-12.88zm9.752-120.528c0 5.336 4.6 9.936 9.936 9.936s9.936-4.6 9.936-9.936-4.6-9.936-9.936-9.936-9.936 4.6-9.936 9.936Z"/><path d="M85.612 132.772h40.664v-2.76h-11.592V83.276c0-5.152 1.84-13.8 6.624-20.608 4.232-6.072 11.224-10.672 20.24-10.672 9.936 0 13.064 4.784 13.064 18.584v59.432H143.02v2.76h40.664v-2.76h-12.88v-56.12c0-17.48-8.28-25.208-26.496-25.208-24.104 0-29.624 20.976-29.624 20.976h-.368V49.972H85.612v2.675l12.88.085v77.28h-12.88zm-33.144-14.8c.552 9.384 6.256 15.088 16.192 15.088 8.648 0 10.576-3.717 11.562-4.727 0 0-1.521 1.784-8.25 1.619-3.863-.095-4.968-3.7-4.968-9.036V72.892c0-16.008-9.016-25.208-31.28-25.208-19.32 0-29.808 6.808-29.808 16.928 0 7.36 5.704 11.96 13.984 11.96 3.864 0 7.741-3.003 7.741-3.003-7.509-.439-11.213-3.437-11.213-9.509 0-9.752 8.072-13.984 19.296-13.984 12.144 0 15.088 5.888 15.088 16.744v19.32h-1.84C26.708 86.14 1.5 92.58 1.5 112.452c0 15.272 13.064 20.608 24.84 20.608 13.616 0 22.08-7.912 25.76-15.088zm-1.656-5.52c0 4.232-4.048 9.568-9.2 13.248-3.68 2.576-7.912 4.232-11.96 4.232-6.808 0-10.672-4.968-10.672-17.112 0-10.12 3.312-16.376 9.384-19.872C33.148 90.188 39.588 88.9 47.5 88.9h3.312z" style="stroke-linecap:round"/></g></svg>