<svg xmlns="http://www.w3.org/2000/svg" width="139" height="139" class="c-egzYgW c-egzYgW-fZJwEe-large-false" style="cursor:grab" viewBox="0 0 139 139"><defs><radialGradient id="a" cx="33.434395%" cy="32.389247%" r="64.015025%" gradientTransform="matrix(.5785 .81412 -.81568 .5774 .405 -.135)"><stop offset="0" stop-color="#fff" stop-opacity=".904382"/><stop offset="1" stop-color="#ff6d6d"/></radialGradient></defs><g fill="none" fill-rule="evenodd"><g fill-rule="nonzero"><circle cx="69.375" cy="69.375" r="69.375" fill="#FAFAFA"/><path fill="#363645" d="M40.097 44.506c-.333.072-.602.247-.833.561-.238.341-.323.903-.2 1.274.103.324.667.982 1.286 1.429-.616.803-1.8 2.42-2.371 3.249-4.157 6.022-6.595 11.532-6.904 15.504-.168 2.148.25 3.65 1.238 4.817.731.86 1.587 1.35 2.966 1.642 1.131.24 2.862.23 4.61-.037-1.099 1.575-2.668 3.991-3.476 5.366-1.335 2.284-2.702 5.203-3.216 6.873-.904 2.912-1.02 5.303-.418 7.584.368 1.402.962 2.527 1.768 3.391.822.88 1.866 1.494 3.142 1.84 2.092.566 5.163.405 9.04-.508a60 60 0 0 0 3.007-.818c-.834 2.918-.741 5.581.195 7.493.302.614 1.148 1.65 1.654 2.032 3.024 2.258 9.382 2.173 17.914-.502.683-.214 2.612-.88 3.573-1.23.657.877 1.269 1.223 2.688 1.393.923.1 1.68-.048 2.398-.46.328-.19.521-.377.63-.552.18-.284.213-.576.09-.926-.12-.327-.291-.522-.598-.66-.177-.08-.435-.136-.855-.168-.327-.021-.443-.034-.617-.158l.054-.046c1.494-.631 4.719-2.242 6.708-3.352 7.279-4.06 15.056-9.782 20.235-14.891 4.693-4.625 9.242-10.396 10.181-12.869.285-.741.363-1.511.243-2.11-.102-.47-.158-.597-.61-1.135-.478-.57-.578-.623-1.019-.798-1.467-.577-3.734.059-8.202 2.787-5.715 3.49-14.195 9.968-20.171 15.418C78.34 91.3 74.474 95.988 73.04 99.426c-.172.415-.167.608-.257.657-.092.051-.888.36-1.762.705-4.818 1.87-9.015 2.942-12.151 3.08-.865.04-2.246-.054-2.928-.201-.572-.122-1.275-.4-1.541-.652-.332-.309-.462-.826-.484-1.478-.029-.821.136-1.847.483-3.04.237-.805 1.07-2.888 1.486-3.697l.976-.526c5.255-1.988 11.203-4.866 16.773-8.115 7.524-4.39 16.185-10.477 23.94-16.842 4.62-3.793 7.104-6.184 9.459-9.095 1.839-2.271 3.328-4.83 3.667-6.256.246-1.013.213-1.921-.055-2.686-.283-.807-.826-1.467-1.622-1.934-2.073-1.215-5.829-.736-10.906 1.553-4.8 2.165-10.803 5.896-17.583 11.01-4.051 3.049-9.723 7.767-12.72 10.575-7.65 7.175-12.89 13.415-15.796 18.787l-.197.367c-2.571.967-6.542 2.089-8.53 2.427-1.658.278-3.258.352-4.198.167-.581-.114-1.024-.299-1.35-.633-.337-.347-.542-.838-.692-1.494-.229-1.026-.16-2.714.145-3.962.946-3.852 4.065-9.382 8.826-15.727l1.033-1.373 1.067-.412c7.054-2.709 15.812-7.582 23.58-13.127 4.305-3.076 8.934-6.894 12.08-9.97 2.499-2.442 4.497-4.693 6.04-6.798 1.36-1.863 2.215-3.436 2.6-4.771.43-1.49.295-2.712-.321-3.744-.471-.79-1.187-1.32-2.093-1.567-.829-.227-1.83-.21-2.952.09-3.255.881-8.108 3.794-15.044 9.08-1.724 1.322-7.412 6.095-9.11 7.646-7.087 6.498-13.364 13.137-18.682 19.748l-1.005 1.252-.563.168c-1.637.482-3.517.839-4.848.919-.778.047-1.81-.062-2.258-.266-.237-.105-.275-.133-.413-.321-.243-.336-.3-.657-.32-1.299-.1-2.804 1.842-7.547 5.066-12.576a69 69 0 0 1 4.151-5.763l.73-.911c2.31-.717 4.604-2.173 8.057-5.07 3.967-3.337 7.845-7.537 8.922-8.984 1.258-1.69 1.74-3.369 1.53-4.031a2 2 0 0 0-.764-1.013 1.8 1.8 0 0 0-1.206-.327c-.609.062-2.005.808-3.86 2.157-1.312.95-4.956 3.956-6.552 5.404-2.909 2.634-4.829 4.564-7.227 7.256l-.758.847a3.64 3.64 0 0 1-1.789-.074c-.423-.122-.75-.137-1.017-.08m28.975 3.582c2.018-1.752 2.87-2.457 5.641-4.692 3.348-2.693 7.03-5.249 9.73-6.754 1.324-.74 2.563-1.324 3.528-1.518a14 14 0 0 1-.935 1.612c-1.797 2.695-4.534 5.76-8.638 9.683-1.238 1.188-7.42 6.367-8.963 7.52-5.2 3.875-9.995 6.962-14.925 9.598-.628.335-1.379.722-2.103 1.088a182.5 182.5 0 0 1 16.665-16.537m25.825 9.748c5.21-3.147 9.657-4.989 11.767-5.088a5 5 0 0 1-.207.59c-.823 1.945-3.135 4.78-6.434 7.938-1.359 1.297-6.663 5.722-9.135 7.622C79.052 77.97 69.338 84.08 59.89 88.363c1.656-2.239 3.982-4.993 6.181-7.301 4.133-4.34 9.2-8.931 14.266-12.925 5.633-4.444 10.136-7.626 14.56-10.3m3.144 22.782c3.867-3.026 7.324-5.45 9.876-6.942-.242.327-.492.655-.727.953-4.073 5.162-8.941 9.79-15.02 14.263-3.567 2.622-7.262 5.017-10.854 7.025 2.068-2.38 4.688-4.985 8.255-8.218.929-.845 7.238-6.123 8.47-7.081"/><ellipse cx="69.560811" cy="69.604167" fill="url(&quot;#a&quot;)" rx="22.560811" ry="22.604167"/></g><path fill="#363645" d="M32.313 71.362c-.989-1.167-1.406-2.669-1.238-4.816l3.74 1.147c.019.642.076.964.32 1.299.138.188.175.217.412.322.449.203 1.48.312 2.258.265 1.331-.08 4.848-.92 4.848-.92l9.754-4.012s1.475-.753 2.103-1.088c4.93-2.636 9.725-5.723 14.925-9.597 1.542-1.153 7.725-6.332 8.963-7.52 4.104-3.923 6.84-6.989 8.638-9.684.37-.558.59-1.137.935-1.611l2.038-4.471c.89.23 1.622.778 2.093 1.567.616 1.033.75 2.254.321 3.744-.385 1.336-1.24 2.909-2.6 4.771-1.543 2.105-3.541 4.356-6.04 6.799-3.146 3.075-7.775 6.893-12.08 9.97-7.768 5.544-16.526 10.417-23.58 13.126l-1.067.412L43.3 72.2l-3.412.767c-1.747.267-3.478.278-4.61.038-1.378-.294-2.234-.783-2.965-1.643m2.234 24.819c-.806-.864-1.4-1.989-1.768-3.39l4.273-.663c.15.655.355 1.147.693 1.494.325.333.768.519 1.35.632.94.185 2.539.11 4.197-.167 1.988-.338 5.959-1.46 8.53-2.427l8.068-3.275c9.447-4.282 19.162-10.393 30.998-19.465 2.472-1.9 7.776-6.324 9.135-7.621 3.299-3.159 5.611-5.993 6.434-7.94.084-.193.158-.412.207-.59l2.36-3.401c.796.467 1.339 1.127 1.622 1.934.268.765.3 1.673.055 2.686-.339 1.426-1.828 3.985-3.667 6.257-2.355 2.91-4.84 5.301-9.46 9.094-7.754 6.365-16.414 12.452-23.939 16.842-5.57 3.25-11.518 6.127-16.774 8.115l-.975.526-6.15 1.874c-.936.277-2.19.627-3.007.817-3.877.913-6.948 1.074-9.04.508-1.276-.346-2.32-.96-3.142-1.84m34.953 9.537c-8.533 2.675-14.89 2.76-17.915.502l2.816-3.183c.266.253.969.53 1.54.652.683.147 2.064.24 2.929.201 3.136-.138 7.334-1.21 12.151-3.08.874-.344 1.67-.654 1.762-.705l8.533-4.166c3.592-2.008 7.287-4.402 10.854-7.025 6.079-4.472 10.947-9.1 15.02-14.263.235-.298.485-.626.727-.952l4.683-5.943c.441.175.541.228 1.02.798.451.539.507.666.609 1.134.12.6.042 1.37-.243 2.111-.94 2.473-5.487 8.244-10.18 12.869-5.18 5.11-12.957 10.832-20.235 14.892-1.99 1.109-5.215 2.72-6.709 3.352l-.054.045-3.736 1.532c-.96.349-2.89 1.016-3.573 1.229"/></g></svg>