<svg xmlns="http://www.w3.org/2000/svg" width="150" height="150" fill="none" viewBox="0 0 150 150"><rect width="150" height="150" fill="url(#a)" rx="4"/><g clip-path="url(#b)"><path fill="#fff" d="M18.452 103V47.727h20.727q6.37 0 10.688 2.375 4.344 2.375 6.558 6.532 2.24 4.128 2.24 9.392 0 5.316-2.24 9.446-2.241 4.128-6.612 6.504-4.373 2.348-10.769 2.348H25.307v-8.232h12.388q3.724 0 6.099-1.295 2.375-1.296 3.509-3.563 1.16-2.266 1.16-5.208t-1.16-5.182q-1.134-2.24-3.536-3.482-2.374-1.268-6.126-1.268h-9.176V103zm48.478 0V61.546h9.473v6.908h.432q1.134-3.589 3.886-5.532 2.78-1.97 6.343-1.97.81 0 1.808.08 1.025.055 1.7.19v8.987q-.62-.216-1.97-.378a18 18 0 0 0-2.564-.189q-2.672 0-4.804 1.16a8.5 8.5 0 0 0-3.32 3.158Q76.7 75.985 76.7 78.63V103zm46.508.81q-6.072 0-10.525-2.672t-6.91-7.476q-2.428-4.804-2.428-11.227t2.429-11.255q2.456-4.83 6.909-7.502t10.525-2.672 10.526 2.672 6.882 7.502q2.456 4.831 2.456 11.255 0 6.423-2.456 11.227-2.428 4.804-6.882 7.476t-10.526 2.672m.054-7.827q3.292 0 5.506-1.808 2.213-1.836 3.292-4.912 1.107-3.077 1.107-6.855 0-3.806-1.107-6.882-1.079-3.104-3.292-4.94-2.214-1.835-5.506-1.835-3.374 0-5.613 1.836-2.214 1.835-3.32 4.939-1.08 3.076-1.08 6.882 0 3.779 1.08 6.855 1.106 3.076 3.32 4.912 2.24 1.808 5.613 1.808"/></g><defs><linearGradient id="a" x1="150" x2="-1.875" y1="75" y2="73.125" gradientUnits="userSpaceOnUse"><stop stop-color="#13C2C2"/><stop offset="1" stop-color="#1677FF"/></linearGradient><clipPath id="b"><path fill="#fff" d="M13 29h124v92H13z"/></clipPath></defs></svg>